<svg width="30" height="30" viewBox="0 0 30 30" fill="none" xmlns="http://www.w3.org/2000/svg">
<g clip-path="url(#clip0)">
<path d="M11.25 12.5C7.80372 12.5 4.99997 9.69625 4.99997 6.25C4.99997 2.80375 7.80372 0 11.25 0C14.6962 0 17.5 2.80375 17.5 6.25C17.5 9.69625 14.6962 12.5 11.25 12.5ZM11.25 1.25C8.49247 1.25 6.24997 3.4925 6.24997 6.25C6.24997 9.0075 8.49247 11.25 11.25 11.25C14.0075 11.25 16.25 9.0075 16.25 6.25C16.25 3.4925 14.0075 1.25 11.25 1.25Z" fill="#21A18E"/>
<path d="M10.625 26.25H0.625C0.28 26.25 0 25.97 0 25.625V20.625C0 17.5238 2.52375 15 5.625 15H13.125C13.47 15 13.75 15.28 13.75 15.625C13.75 15.97 13.47 16.25 13.125 16.25H5.625C3.2125 16.25 1.25 18.2125 1.25 20.625V25H10.625C10.97 25 11.25 25.28 11.25 25.625C11.25 25.97 10.97 26.25 10.625 26.25Z" fill="#21A18E"/>
<path d="M21.25 25C19.5275 25 18.125 23.5975 18.125 21.875C18.125 20.1525 19.5275 18.75 21.25 18.75C22.9725 18.75 24.375 20.1525 24.375 21.875C24.375 23.5975 22.9725 25 21.25 25ZM21.25 20C20.2163 20 19.375 20.8412 19.375 21.875C19.375 22.9087 20.2163 23.75 21.25 23.75C22.2838 23.75 23.125 22.9087 23.125 21.875C23.125 20.8412 22.2838 20 21.25 20Z" fill="#21A18E"/>
<path d="M22.2463 29.9997H20.2525C19.6075 29.9997 19.0725 29.516 19.0088 28.8735L18.85 27.2847C18.4713 27.116 18.11 26.906 17.7688 26.656L16.3088 27.3147C15.7225 27.5822 15.0338 27.3585 14.7125 26.7997L13.7163 25.0735C13.3938 24.5147 13.5463 23.8097 14.0688 23.4335L15.355 22.5085C15.33 22.3147 15.3125 22.0997 15.3125 21.8747C15.3125 21.6497 15.33 21.4335 15.355 21.241L14.0688 20.316C13.5463 19.9397 13.3938 19.2347 13.7163 18.676L14.7125 16.9497C15.035 16.391 15.72 16.1697 16.3088 16.4347L17.7688 17.0935C18.11 16.8435 18.4713 16.6335 18.85 16.4647L19.0088 14.876C19.0725 14.2347 19.6075 13.751 20.2525 13.751H22.2463C22.8913 13.751 23.4263 14.2347 23.49 14.8772L23.6488 16.466C24.0288 16.6347 24.39 16.846 24.73 17.0947L26.19 16.436C26.7788 16.1722 27.465 16.3935 27.7863 16.951L28.7825 18.6772C29.105 19.236 28.9525 19.941 28.43 20.3172L27.1438 21.2422C27.1688 21.436 27.1863 21.651 27.1863 21.876C27.1863 22.101 27.1688 22.3172 27.1438 22.5097L28.43 23.4347C28.9525 23.811 29.105 24.516 28.7825 25.0747L27.7875 26.7997C27.465 27.3572 26.7813 27.581 26.1913 27.3147L24.7313 26.656C24.39 26.906 24.0288 27.116 23.65 27.2847L23.49 28.8747C23.4263 29.516 22.8913 29.9997 22.2463 29.9997ZM17.8563 25.306C18 25.306 18.1425 25.356 18.2575 25.4522C18.6813 25.8072 19.15 26.0785 19.6488 26.261C19.8738 26.3435 20.0325 26.5472 20.0563 26.786L20.2538 28.7497H22.2475L22.4438 26.786C22.4675 26.5472 22.6263 26.3435 22.8513 26.261C23.35 26.0785 23.8188 25.806 24.2425 25.4522C24.4275 25.2985 24.6825 25.2635 24.9 25.3622L26.705 26.1772L27.7013 24.451L26.1038 23.3035C25.9088 23.1635 25.8125 22.9235 25.8525 22.6872C25.8988 22.4235 25.9363 22.1547 25.9363 21.8772C25.9363 21.5997 25.8988 21.331 25.8525 21.0672C25.8113 20.831 25.9088 20.5922 26.1038 20.451L27.7013 19.3035L26.705 17.5772L24.9 18.391C24.6813 18.4897 24.4263 18.4547 24.2413 18.301C23.8188 17.946 23.3513 17.6747 22.85 17.4922C22.625 17.4097 22.4663 17.206 22.4425 16.9672L22.2463 14.9997H20.2525L20.0563 16.9635C20.0325 17.2022 19.8738 17.406 19.6488 17.4885C19.15 17.671 18.6813 17.9435 18.2575 18.2972C18.0738 18.451 17.8188 18.4872 17.6 18.3872L15.795 17.5722L14.7988 19.2985L16.3963 20.446C16.5913 20.586 16.6875 20.826 16.6475 21.0622C16.6013 21.326 16.5638 21.5947 16.5638 21.8722C16.5638 22.1497 16.6013 22.4185 16.6475 22.6822C16.6888 22.9185 16.5913 23.1572 16.3963 23.2985L14.7988 24.446L15.795 26.1722L17.6 25.3585C17.6825 25.3235 17.7688 25.306 17.8563 25.306Z" fill="#21A18E"/>
</g>
<defs>
<clipPath id="clip0">
<rect width="30" height="30" fill="white"/>
</clipPath>
</defs>
</svg>
