<svg width="40" height="40" viewBox="0 0 40 40" fill="none" xmlns="http://www.w3.org/2000/svg">
<path d="M20.7305 1.65918L19.5043 1.41418L19.0626 3.6248L20.2889 3.8698L20.7305 1.65918Z" fill="#21A18E"/>
<path d="M28.0825 6.83691L27.1988 5.95316L25.4313 7.72066L26.315 8.60441L28.0825 6.83691Z" fill="#21A18E"/>
<path d="M24.6449 4.05469L23.5737 3.41094L22.2466 5.61939L23.3178 6.26313L24.6449 4.05469Z" fill="#21A18E"/>
<path d="M32.6182 14.5149L32.3732 13.2886L30.1626 13.7303L30.4076 14.9566L32.6182 14.5149Z" fill="#21A18E"/>
<path d="M30.6215 10.4658L29.979 9.3945L27.7705 10.7191L28.4131 11.7904L30.6215 10.4658Z" fill="#21A18E"/>
<path d="M28.9645 17.4429C28.6126 17.794 28.1358 17.9911 27.6387 17.9911C27.1416 17.9911 26.6648 17.794 26.3129 17.4429L26.1663 17.2963C23.6459 18.3539 21.3403 19.8635 19.3631 21.7507L21.1038 23.4914L22.1336 22.4616C22.3267 22.2685 22.5559 22.1154 22.8081 22.0109C23.0604 21.9064 23.3308 21.8526 23.6038 21.8526C23.8769 21.8526 24.1473 21.9064 24.3995 22.0109C24.6518 22.1154 24.881 22.2685 25.0741 22.4616L25.9208 23.3083C26.1253 23.5132 26.2667 23.7726 26.328 24.0555C26.3894 24.3385 26.3681 24.6331 26.2668 24.9043L28.4181 27.0557C28.8669 27.5054 29.1189 28.1149 29.1189 28.7503C29.1189 29.3857 28.8669 29.9951 28.4181 30.4449L25.2984 33.5645C24.9264 33.9364 24.4423 34.1756 23.9209 34.2453C23.3994 34.315 22.8696 34.2113 22.4129 33.9501L20.7377 35.6253L20.9208 35.8083C20.9788 35.8663 21.0249 35.9353 21.0563 36.0111C21.0877 36.0869 21.1039 36.1682 21.1039 36.2503C21.1039 36.3323 21.0877 36.4136 21.0563 36.4894C21.0249 36.5653 20.9788 36.6342 20.9208 36.6922L19.0458 38.5672L18.1619 37.6833L19.5949 36.2503L14.8538 31.5091L12.6127 33.7503L16.5458 37.6833L15.6619 38.5672L11.7288 34.6342L7.79578 38.5672L6.91187 37.6833L14.4119 30.1833C14.4699 30.1253 14.5388 30.0792 14.6146 30.0478C14.6905 30.0164 14.7717 30.0002 14.8538 30.0002C14.9359 30.0002 15.0172 30.0164 15.093 30.0478C15.1688 30.0792 15.2377 30.1253 15.2958 30.1833L16.0982 30.9857L17.7602 29.2809C17.5957 28.9806 17.4971 28.6486 17.4711 28.3072C17.4452 27.9658 17.4923 27.6228 17.6095 27.301L15.7062 25.3978L15.2642 25.8397C14.8002 26.3055 14.249 26.6752 13.642 26.9276C13.035 27.1801 12.3841 27.3104 11.7267 27.311C11.0693 27.3116 10.4182 27.1826 9.81068 26.9313C9.20318 26.68 8.65121 26.3114 8.18634 25.8465C7.72148 25.3816 7.35285 24.8297 7.10157 24.2222C6.85028 23.6147 6.72126 22.9636 6.7219 22.3061C6.72254 21.6487 6.85281 20.9979 7.10528 20.3909C7.35774 19.7839 7.72744 19.2326 8.1932 18.7686L11.8985 15.0633C13.964 13.002 15.6074 10.5575 16.7366 7.86676L16.5901 7.72011C16.242 7.36776 16.0474 6.89199 16.0489 6.39668C16.0504 5.90137 16.2478 5.42678 16.5981 5.07654C16.9483 4.7263 17.4229 4.52886 17.9182 4.52735C18.4135 4.52584 18.8893 4.72038 19.2416 5.06847L28.9646 14.7912C29.3157 15.1431 29.5129 15.62 29.5129 16.1171C29.5129 16.6142 29.3157 17.091 28.9645 17.4429ZM19.0484 28.936L19.8538 29.7414L21.2869 28.3083C21.3449 28.2503 21.4138 28.2042 21.4896 28.1728C21.5655 28.1414 21.6468 28.1252 21.7288 28.1252C21.8109 28.1252 21.8922 28.1414 21.968 28.1728C22.0438 28.2042 22.1127 28.2503 22.1708 28.3083C22.4739 28.6107 22.8648 28.8095 23.2876 28.8763C23.7105 28.9431 24.1437 28.8746 24.5252 28.6805L21.1038 25.2591L19.0484 27.3145C18.8337 27.5297 18.7132 27.8212 18.7132 28.1252C18.7131 28.4292 18.8337 28.7208 19.0484 28.936ZM24.4141 32.6807L27.5338 29.561C27.7488 29.346 27.8696 29.0543 27.8696 28.7503C27.8696 28.4462 27.7488 28.1546 27.5338 27.9396L25.0365 25.4422C24.9784 25.3842 24.9324 25.3153 24.901 25.2395C24.8696 25.1636 24.8534 25.0823 24.8534 25.0003C24.8534 24.9182 24.8696 24.8369 24.901 24.7611C24.9324 24.6853 24.9784 24.6164 25.0365 24.5583C25.085 24.5097 25.1122 24.4439 25.1122 24.3753C25.1122 24.3066 25.085 24.2408 25.0365 24.1922L24.1898 23.3454C24.0342 23.1899 23.8233 23.1026 23.6034 23.1026C23.3835 23.1026 23.1726 23.1899 23.017 23.3454L21.9877 24.3753L25.9208 28.3083C25.9788 28.3663 26.0249 28.4353 26.0563 28.5111C26.0877 28.5869 26.1039 28.6682 26.1039 28.7503C26.1039 28.8323 26.0877 28.9136 26.0563 28.9895C26.0249 29.0653 25.9788 29.1342 25.9208 29.1922C25.3824 29.7291 24.6744 30.0625 23.9175 30.1354C23.1607 30.2083 22.402 30.0162 21.7711 29.5918L20.7377 30.6253L22.793 32.6807C23.0081 32.8957 23.2997 33.0164 23.6038 33.0164C23.9079 33.0164 24.1995 32.8957 24.4145 32.6807H24.4141ZM19.8534 34.7414L21.4699 33.1253L18.5777 30.233L16.9821 31.8696L19.8534 34.7414ZM18.336 26.2594L20.2199 24.3753L18.4744 22.6297L16.5902 24.5139L18.336 26.2594ZM9.0775 24.9558C9.6485 25.5261 10.388 25.8973 11.1865 26.0144C11.9849 26.1315 12.7999 25.9883 13.5106 25.606C11.2163 24.643 9.39139 22.8184 8.42797 20.5243C8.04612 21.2348 7.90307 22.0493 8.01999 22.8474C8.13691 23.6455 8.50759 24.3847 9.07719 24.9558H9.0775ZM9.34117 19.3889C9.74186 20.6297 10.4316 21.7576 11.3537 22.6797C12.2757 23.6017 13.4036 24.2915 14.6445 24.6921L17.6452 21.6914C16.4475 21.2137 15.3596 20.4972 14.4479 19.5854C13.5361 18.6737 12.8196 17.5858 12.342 16.3881L9.34117 19.3889ZM28.081 15.6751L18.3579 5.95238C18.3001 5.89328 18.2311 5.84623 18.155 5.81395C18.0789 5.78168 17.9972 5.76482 17.9145 5.76436C17.8319 5.7639 17.7499 5.77984 17.6735 5.81126C17.597 5.84268 17.5275 5.88895 17.4691 5.94741C17.4106 6.00586 17.3644 6.07533 17.3329 6.15179C17.3015 6.22825 17.2856 6.31018 17.286 6.39285C17.2865 6.47551 17.3034 6.55726 17.3356 6.63336C17.3679 6.70947 17.415 6.77841 17.4741 6.83621L19.817 9.17918L18.9331 10.0632L17.6869 8.81683C16.6086 11.24 15.1302 13.4645 13.3137 15.397C13.7136 16.6435 14.4051 17.7766 15.3307 18.7023C16.2564 19.628 17.3895 20.3195 18.636 20.7194C20.5685 18.9028 22.793 17.4244 25.2162 16.3461L19.9373 11.0672L20.8212 10.1833L27.1968 16.5589C27.2547 16.6176 27.3236 16.6641 27.3996 16.696C27.4756 16.7279 27.5571 16.7445 27.6395 16.7447C27.7219 16.745 27.8035 16.7289 27.8797 16.6975C27.9559 16.6661 28.0251 16.6199 28.0834 16.5617C28.1416 16.5034 28.1878 16.4342 28.2192 16.358C28.2506 16.2819 28.2667 16.2002 28.2664 16.1178C28.2662 16.0354 28.2497 15.9539 28.2178 15.8779C28.1859 15.802 28.1393 15.733 28.0807 15.6751H28.081Z" fill="#21A18E"/>
<path d="M13.9433 20.9797L13.0596 20.096L11.734 21.4216L12.6177 22.3054L13.9433 20.9797Z" fill="#21A18E"/>
<path d="M17.9788 35.625H16.7288V36.875H17.9788V35.625Z" fill="#21A18E"/>
</svg>
