<svg width="40" height="40" viewBox="0 0 40 40" fill="none" xmlns="http://www.w3.org/2000/svg">
<path d="M20 33.0657C18.9662 33.0657 18.125 33.9069 18.125 34.9407C18.125 35.9744 18.9662 36.8157 20 36.8157C21.0338 36.8157 21.875 35.9744 21.875 34.9407C21.875 33.9069 21.0338 33.0657 20 33.0657ZM20 35.5657C19.6556 35.5657 19.375 35.285 19.375 34.9407C19.375 34.5963 19.6556 34.3157 20 34.3157C20.3444 34.3157 20.625 34.5963 20.625 34.9407C20.625 35.285 20.3444 35.5657 20 35.5657Z" fill="#21A18E"/>
<path d="M36.25 11.1907H30.625V4.94067C30.625 2.52817 28.6625 0.565674 26.25 0.565674H13.75C11.3375 0.565674 9.375 2.52817 9.375 4.94067V6.81567H1.25C0.905 6.81567 0.625 7.09567 0.625 7.44067V16.1907C0.625 16.5357 0.905 16.8157 1.25 16.8157H9.375V23.0657H2.5C1.46625 23.0657 0.625 23.9069 0.625 24.9407V32.4407C0.625 33.4744 1.46625 34.3157 2.5 34.3157H9.375V34.9407C9.375 37.3532 11.3375 39.3157 13.75 39.3157H26.25C28.6625 39.3157 30.625 37.3532 30.625 34.9407V23.6907H36.25C37.9731 23.6907 39.375 22.2888 39.375 20.5657V14.3157C39.375 12.5925 37.9731 11.1907 36.25 11.1907ZM13.75 1.81567H26.25C27.7588 1.81567 29.0212 2.8913 29.3119 4.31567H10.6881C10.9788 2.8913 12.2413 1.81567 13.75 1.81567ZM11.9681 8.06567L7.5 11.6407L3.03187 8.0663H11.9681V8.06567ZM1.875 8.7413L7.10938 12.9288C7.22375 13.02 7.36125 13.0657 7.5 13.0657C7.63875 13.0657 7.77625 13.02 7.89062 12.9288L13.125 8.7413V15.5663H1.875V8.7413ZM10.625 16.8157H13.75C14.095 16.8157 14.375 16.5357 14.375 16.1907V7.44067C14.375 7.09567 14.095 6.81567 13.75 6.81567H10.625V5.56567H29.375V11.2538C27.9506 11.5444 26.875 12.8063 26.875 14.3157V20.5657C26.875 22.0744 27.9506 23.3369 29.375 23.6275V30.5657H15.625V29.7019L17.7794 28.6244C17.9913 28.5188 18.125 28.3025 18.125 28.0657C18.125 27.8288 17.9913 27.6125 17.7794 27.5063L15.625 26.4294V24.9407C15.625 23.9069 14.7837 23.0657 13.75 23.0657H10.625V16.8157ZM1.875 32.4407V24.9407C1.875 24.5963 2.15562 24.3157 2.5 24.3157H13.75C14.0944 24.3157 14.375 24.5963 14.375 24.9407V26.8157C14.375 27.0525 14.5087 27.2688 14.7206 27.375L16.1025 28.0657L14.7206 28.7563C14.5087 28.8625 14.375 29.0788 14.375 29.3157V32.4407C14.375 32.785 14.0944 33.0657 13.75 33.0657H2.5C2.15562 33.0657 1.875 32.7857 1.875 32.4407ZM26.25 38.0657H13.75C12.0269 38.0657 10.625 36.6638 10.625 34.9407V34.3157H13.75C14.7837 34.3157 15.625 33.4744 15.625 32.4407V31.8157H29.375V34.9407C29.375 36.6638 27.9731 38.0657 26.25 38.0657ZM38.125 20.5657C38.125 21.5994 37.2837 22.4407 36.25 22.4407H30C28.9662 22.4407 28.125 21.5994 28.125 20.5657V14.3157C28.125 13.2819 28.9662 12.4407 30 12.4407H36.25C37.2837 12.4407 38.125 13.2819 38.125 14.3157V20.5657Z" fill="#21A18E"/>
<path d="M33.125 14.9407C31.4019 14.9407 30 16.3425 30 18.0657C30 19.7888 31.4019 21.1907 33.125 21.1907C34.8481 21.1907 36.25 19.7888 36.25 18.0657C36.25 16.3425 34.8481 14.9407 33.125 14.9407ZM33.125 19.9407C32.0912 19.9407 31.25 19.0994 31.25 18.0657C31.25 17.0319 32.0912 16.1907 33.125 16.1907C34.1588 16.1907 35 17.0319 35 18.0657C35 19.0994 34.1588 19.9407 33.125 19.9407Z" fill="#21A18E"/>
<path d="M35.625 13.6907H36.875V14.9407H35.625V13.6907Z" fill="#21A18E"/>
<path d="M3.125 25.5657H13.125V26.8157H3.125V25.5657Z" fill="#21A18E"/>
<path d="M4.375 28.0657H11.875V29.3157H4.375V28.0657Z" fill="#21A18E"/>
<path d="M3.125 30.5657H13.125V31.8157H3.125V30.5657Z" fill="#21A18E"/>
</svg>
