<svg width="34" height="40" viewBox="0 0 34 40" fill="none" xmlns="http://www.w3.org/2000/svg">
<path d="M22.1271 27.846C26.5593 25.835 29.4233 21.3921 29.4233 16.5272C29.4233 13.9007 28.6135 11.3902 27.0812 9.26712C26.8918 9.00486 26.5257 8.94548 26.2632 9.13493C26.0007 9.32431 25.9415 9.69056 26.131 9.95298C27.5182 11.8752 28.2514 14.1485 28.2514 16.5273C28.2514 20.9335 25.6575 24.9575 21.6432 26.7788C20.8637 27.1321 20.36 27.908 20.36 28.7554V31.4093H13.6397V28.7554C13.6397 27.9076 13.1427 27.1347 12.3731 26.7863C8.32856 24.9593 5.72817 20.9126 5.74833 16.4767C5.77567 10.3004 10.8231 5.27564 16.9999 5.27564C19.7143 5.27564 22.3357 6.25556 24.3809 8.03486C24.625 8.24728 24.9952 8.22165 25.2075 7.97743C25.42 7.73329 25.3943 7.36321 25.1501 7.15079C22.8915 5.18587 19.9971 4.10376 16.9999 4.10376C13.6879 4.10376 10.574 5.38782 8.23176 7.71946C5.88934 10.0513 4.59114 13.1595 4.57645 16.4714C4.55426 21.3691 7.42528 25.8371 11.8903 27.854C12.2411 28.0128 12.4679 28.3667 12.4679 28.7553V31.4092H12.2648C11.5066 31.4092 10.8898 32.0264 10.8898 32.785V33.7319C10.8898 34.4545 11.4505 35.0474 12.1594 35.1016L12.6558 38.1799C12.826 39.2345 13.7247 39.9999 14.7929 39.9999H15.6327C15.9563 39.9999 16.2186 39.7375 16.2186 39.4139C16.2186 39.0903 15.9563 38.828 15.6327 38.828H14.7929C14.3029 38.828 13.8907 38.4769 13.8127 37.9933L13.3472 35.1069H14.2655C14.5891 35.1069 14.8514 34.8446 14.8514 34.521C14.8514 34.1974 14.5891 33.935 14.2655 33.935H12.2647C12.1527 33.935 12.0616 33.8439 12.0616 33.7319V32.785C12.0616 32.6726 12.1528 32.5811 12.2647 32.5811H21.735C21.8471 32.5811 21.9382 32.6726 21.9382 32.785V33.7319C21.9382 33.8439 21.847 33.935 21.735 33.935H16.9999C16.6763 33.935 16.4139 34.1974 16.4139 34.521C16.4139 34.8446 16.6763 35.1069 16.9999 35.1069H20.6525L20.1871 37.9932C20.109 38.4769 19.6968 38.828 19.2069 38.828H18.3671C18.0435 38.828 17.7811 39.0903 17.7811 39.4139C17.7811 39.7375 18.0435 39.9999 18.3671 39.9999H19.2069C20.275 39.9999 21.1738 39.2345 21.344 38.1799L21.8404 35.1016C22.5493 35.0474 23.11 34.4546 23.11 33.7319V32.785C23.11 32.0264 22.4932 31.4092 21.735 31.4092H21.5319V28.7553C21.5319 28.3668 21.7655 28.0099 22.1271 27.846Z" fill="#21A18E"/>
<path d="M9.78488 19.6844V23.1568C9.78488 23.4804 10.0472 23.7428 10.3708 23.7428H23.6292C23.9528 23.7428 24.2151 23.4804 24.2151 23.1568V19.6844C24.2151 17.6207 22.5361 15.9417 20.4725 15.9417H20.0377C20.9547 15.1118 21.5319 13.9129 21.5319 12.5817C21.5319 10.0828 19.4989 8.0498 17 8.0498C14.5011 8.0498 12.4682 10.0828 12.4682 12.5817C12.4682 13.9129 13.0454 15.1118 13.9624 15.9417H13.5276C11.4639 15.9418 9.78488 17.6207 9.78488 19.6844ZM13.64 12.5818C13.64 10.729 15.1473 9.22176 17 9.22176C18.8528 9.22176 20.36 10.729 20.36 12.5818C20.36 14.4344 18.8528 15.9418 17 15.9418C15.1473 15.9418 13.64 14.4344 13.64 12.5818ZM20.4725 17.1136C21.89 17.1136 23.0432 18.2669 23.0432 19.6845V22.571H20.9005V21.5785C20.9005 21.2549 20.6382 20.9925 20.3146 20.9925C19.991 20.9925 19.7286 21.2549 19.7286 21.5785V22.571H14.2713V21.5785C14.2713 21.2549 14.0089 20.9925 13.6854 20.9925C13.3618 20.9925 13.0994 21.2549 13.0994 21.5785V22.571H10.9567V19.6845C10.9567 18.2669 12.11 17.1136 13.5275 17.1136H20.4725Z" fill="#21A18E"/>
<path d="M17 2.75023C17.3236 2.75023 17.5859 2.48789 17.5859 2.1643V0.585938C17.5859 0.262344 17.3236 0 17 0C16.6764 0 16.4141 0.262344 16.4141 0.585938V2.1643C16.4141 2.48789 16.6764 2.75023 17 2.75023Z" fill="#21A18E"/>
<path d="M9.31096 4.38172C9.41948 4.56969 9.61643 4.67476 9.81893 4.67476C9.91831 4.67476 10.0191 4.64945 10.1114 4.59617C10.3916 4.43437 10.4876 4.07601 10.3258 3.79578L9.53659 2.42883C9.37479 2.14859 9.01635 2.0525 8.7362 2.21437C8.45596 2.37617 8.35995 2.73453 8.52174 3.01476L9.31096 4.38172Z" fill="#21A18E"/>
<path d="M2.90117 9.06418L4.26813 9.8534C4.36039 9.90668 4.46117 9.93199 4.56055 9.93199C4.76305 9.93199 4.96 9.82684 5.06852 9.63894C5.23032 9.35871 5.1343 9.00035 4.85407 8.83855L3.48711 8.04933C3.2068 7.88746 2.84852 7.98355 2.68672 8.26379C2.52492 8.5441 2.62094 8.90246 2.90117 9.06418Z" fill="#21A18E"/>
<path d="M3.22265 16.5278C3.22265 16.2042 2.9603 15.9419 2.63671 15.9419H1.05835C0.734756 15.9419 0.472412 16.2042 0.472412 16.5278C0.472412 16.8514 0.734756 17.1138 1.05835 17.1138H2.63671C2.9603 17.1138 3.22265 16.8514 3.22265 16.5278Z" fill="#21A18E"/>
<path d="M4.26813 23.2019L2.90117 23.9911C2.62094 24.1529 2.52492 24.5113 2.68672 24.7915C2.79524 24.9795 2.99219 25.0846 3.19469 25.0846C3.29406 25.0846 3.39485 25.0592 3.48711 25.006L4.85407 24.2167C5.1343 24.055 5.23032 23.6966 5.06852 23.4164C4.90672 23.136 4.54836 23.0401 4.26813 23.2019Z" fill="#21A18E"/>
<path d="M23.8886 4.59621C23.9809 4.64949 24.0817 4.6748 24.181 4.6748C24.3835 4.6748 24.5805 4.56964 24.689 4.38175L25.4782 3.0148C25.64 2.73456 25.544 2.37621 25.2638 2.21441C24.9835 2.05246 24.6252 2.14863 24.4634 2.42886L23.6742 3.79574C23.5123 4.07605 23.6083 4.43441 23.8886 4.59621Z" fill="#21A18E"/>
<path d="M29.4394 9.93176C29.5388 9.93176 29.6395 9.90645 29.7318 9.85317L31.0988 9.06395C31.379 8.90215 31.475 8.5438 31.3132 8.26356C31.1514 7.98325 30.793 7.88723 30.5128 8.04911L29.1459 8.83833C28.8656 9.00012 28.7696 9.35848 28.9314 9.63872C29.0399 9.82669 29.2369 9.93176 29.4394 9.93176Z" fill="#21A18E"/>
<path d="M32.9416 15.9419H31.3632C31.0396 15.9419 30.7773 16.2042 30.7773 16.5278C30.7773 16.8514 31.0396 17.1138 31.3632 17.1138H32.9416C33.2652 17.1138 33.5275 16.8514 33.5275 16.5278C33.5275 16.2042 33.2652 15.9419 32.9416 15.9419Z" fill="#21A18E"/>
<path d="M31.0988 23.9909L29.7318 23.2017C29.4516 23.0398 29.0932 23.1359 28.9314 23.4161C28.7696 23.6964 28.8656 24.0547 29.1459 24.2165L30.5128 25.0057C30.6051 25.059 30.7059 25.0843 30.8052 25.0843C31.0077 25.0843 31.2047 24.9792 31.3132 24.7913C31.475 24.5111 31.379 24.1527 31.0988 23.9909Z" fill="#21A18E"/>
</svg>
