<svg width="40" height="40" viewBox="0 0 40 40" fill="none" xmlns="http://www.w3.org/2000/svg">
<path d="M16.25 36.25H12.5C12.3342 36.25 12.1753 36.3158 12.0581 36.4331C11.9408 36.5503 11.875 36.7092 11.875 36.875C11.875 37.0408 11.9408 37.1997 12.0581 37.3169C12.1753 37.4342 12.3342 37.5 12.5 37.5H16.25C16.4158 37.5 16.5747 37.4342 16.6919 37.3169C16.8092 37.1997 16.875 37.0408 16.875 36.875C16.875 36.7092 16.8092 36.5503 16.6919 36.4331C16.5747 36.3158 16.4158 36.25 16.25 36.25Z" fill="#21A18E"/>
<path d="M35.9375 3.36563C35.7242 3.24246 35.4888 3.16253 35.2446 3.13038C35.0004 3.09824 34.7523 3.11452 34.5144 3.17829C34.2765 3.24206 34.0535 3.35207 33.8581 3.50205C33.6628 3.65202 33.4989 3.83901 33.3758 4.05234L25.625 17.4773V2.8125C25.6244 2.23254 25.3937 1.67651 24.9836 1.26641C24.5735 0.856315 24.0175 0.625641 23.4375 0.625H5.3125C4.73254 0.625641 4.17651 0.856315 3.76641 1.26641C3.35631 1.67651 3.12564 2.23254 3.125 2.8125V37.1875C3.12564 37.7675 3.35631 38.3235 3.76641 38.7336C4.17651 39.1437 4.73254 39.3744 5.3125 39.375H23.4375C24.0175 39.3744 24.5735 39.1437 24.9836 38.7336C25.3937 38.3235 25.6244 37.7675 25.625 37.1875V24.9773L36.6242 5.92734C36.8721 5.49639 36.9389 4.98476 36.8102 4.50458C36.6815 4.0244 36.3677 3.61483 35.9375 3.36563ZM17.3242 1.875L17.0117 3.125H11.7383L11.4258 1.875H17.3242ZM24.375 37.1875C24.3748 37.4361 24.276 37.6744 24.1002 37.8502C23.9244 38.026 23.6861 38.1248 23.4375 38.125H5.3125C5.06392 38.1248 4.82559 38.026 4.64982 37.8502C4.47405 37.6744 4.37521 37.4361 4.375 37.1875V2.8125C4.37521 2.56392 4.47405 2.32559 4.64982 2.14982C4.82559 1.97405 5.06392 1.87521 5.3125 1.875H10.1367L10.6438 3.90156C10.6775 4.03677 10.7556 4.15681 10.8654 4.24259C10.9753 4.32837 11.1106 4.37498 11.25 4.375H17.5C17.6394 4.37498 17.7747 4.32837 17.8846 4.24259C17.9944 4.15681 18.0725 4.03677 18.1062 3.90156L18.6133 1.875H23.4375C23.6861 1.87521 23.9244 1.97405 24.1002 2.14982C24.276 2.32559 24.3748 2.56392 24.375 2.8125V19.6422L17.7508 31.1156C17.7023 31.1996 17.6742 31.2938 17.6688 31.3906L17.5008 34.1805C17.494 34.2963 17.5195 34.4118 17.5745 34.514C17.6296 34.6162 17.712 34.7011 17.8125 34.7591C17.913 34.8172 18.0277 34.8461 18.1438 34.8427C18.2598 34.8393 18.3726 34.8037 18.4695 34.7398L20.8016 33.1992C20.8826 33.146 20.95 33.0746 20.9984 32.9906L24.375 27.143V37.1875ZM19.9898 32.2375L18.8234 33.0078L18.9078 31.6125L32.8961 7.38359L33.9789 8.00859L19.9898 32.2375ZM35.5414 5.30234L34.6039 6.92578L33.5211 6.30078L34.4586 4.67734C34.5415 4.53375 34.678 4.42897 34.8381 4.38604C34.9983 4.34311 35.1689 4.36556 35.3125 4.44844C35.4561 4.53132 35.5609 4.66784 35.6038 4.82798C35.6467 4.98812 35.6243 5.15875 35.5414 5.30234Z" fill="#21A18E"/>
<path d="M6.25 10H8.75C8.91576 10 9.07473 9.93415 9.19194 9.81694C9.30915 9.69973 9.375 9.54076 9.375 9.375V6.875C9.375 6.70924 9.30915 6.55027 9.19194 6.43306C9.07473 6.31585 8.91576 6.25 8.75 6.25H6.25C6.08424 6.25 5.92527 6.31585 5.80806 6.43306C5.69085 6.55027 5.625 6.70924 5.625 6.875V9.375C5.625 9.54076 5.69085 9.69973 5.80806 9.81694C5.92527 9.93415 6.08424 10 6.25 10ZM6.875 7.5H8.125V8.75H6.875V7.5Z" fill="#21A18E"/>
<path d="M6.25 14.375H8.75C8.91576 14.375 9.07473 14.3092 9.19194 14.1919C9.30915 14.0747 9.375 13.9158 9.375 13.75V11.25C9.375 11.0842 9.30915 10.9253 9.19194 10.8081C9.07473 10.6908 8.91576 10.625 8.75 10.625H6.25C6.08424 10.625 5.92527 10.6908 5.80806 10.8081C5.69085 10.9253 5.625 11.0842 5.625 11.25V13.75C5.625 13.9158 5.69085 14.0747 5.80806 14.1919C5.92527 14.3092 6.08424 14.375 6.25 14.375ZM6.875 11.875H8.125V13.125H6.875V11.875Z" fill="#21A18E"/>
<path d="M6.25 18.75H8.75C8.91576 18.75 9.07473 18.6842 9.19194 18.5669C9.30915 18.4497 9.375 18.2908 9.375 18.125V15.625C9.375 15.4592 9.30915 15.3003 9.19194 15.1831C9.07473 15.0658 8.91576 15 8.75 15H6.25C6.08424 15 5.92527 15.0658 5.80806 15.1831C5.69085 15.3003 5.625 15.4592 5.625 15.625V18.125C5.625 18.2908 5.69085 18.4497 5.80806 18.5669C5.92527 18.6842 6.08424 18.75 6.25 18.75ZM6.875 16.25H8.125V17.5H6.875V16.25Z" fill="#21A18E"/>
<path d="M9.375 22.5V20C9.375 19.8342 9.30915 19.6753 9.19194 19.5581C9.07473 19.4408 8.91576 19.375 8.75 19.375H6.25C6.08424 19.375 5.92527 19.4408 5.80806 19.5581C5.69085 19.6753 5.625 19.8342 5.625 20V22.5C5.625 22.6658 5.69085 22.8247 5.80806 22.9419C5.92527 23.0592 6.08424 23.125 6.25 23.125H8.75C8.91576 23.125 9.07473 23.0592 9.19194 22.9419C9.30915 22.8247 9.375 22.6658 9.375 22.5ZM8.125 21.875H6.875V20.625H8.125V21.875Z" fill="#21A18E"/>
<path d="M15.1562 35C15.322 35 15.4809 34.9342 15.5982 34.817C15.7154 34.6998 15.7812 34.5408 15.7812 34.375C15.7812 34.2093 15.7154 34.0503 15.5982 33.9331C15.4809 33.8159 15.322 33.75 15.1562 33.75C13.16 33.75 12.8833 33.3369 12.8821 33.3348C12.8708 33.2723 12.9752 33.0692 13.0982 32.942C13.1095 32.9306 13.1203 32.9189 13.1307 32.9068C13.6205 32.3354 15.162 30.3797 14.4354 29.2037C13.8451 28.2484 12.3375 28.4977 11.2548 28.7684C10.0096 29.0797 9.13527 28.9954 8.65566 28.5179C7.95309 27.8182 8.13371 26.3019 8.26285 25.7757C8.30213 25.6152 8.27622 25.4456 8.1908 25.3042C8.10538 25.1627 7.9674 25.0608 7.80705 25.0208C7.64669 24.9808 7.47702 25.0059 7.33516 25.0907C7.19329 25.1755 7.09077 25.313 7.05004 25.4732C7.02379 25.5778 6.42418 28.0542 7.76996 29.4C8.58129 30.2111 9.8559 30.4066 11.5579 29.981C13.0778 29.601 13.3712 29.8601 13.3718 29.8603C13.3732 29.8628 13.4757 30.1509 12.9382 31.0399C12.7145 31.4038 12.4653 31.7514 12.1927 32.0803C12.0423 32.2382 11.3875 32.9917 11.7268 33.8111C12.0625 34.6223 13.1524 35 15.1562 35Z" fill="#21A18E"/>
<path d="M14.3798 18.5932L13.191 20.9707C13.1434 21.066 13.1209 21.1719 13.1256 21.2783C13.1304 21.3848 13.1623 21.4882 13.2183 21.5788C13.2743 21.6695 13.3526 21.7443 13.4456 21.7962C13.5387 21.848 13.6435 21.8753 13.75 21.8753H20C20.1065 21.8753 20.2113 21.848 20.3043 21.7962C20.3974 21.7443 20.4756 21.6695 20.5316 21.5788C20.5876 21.4882 20.6196 21.3848 20.6243 21.2783C20.6291 21.1719 20.6066 21.066 20.559 20.9707L18.8549 17.5628C19.7085 16.8382 20.2939 15.848 20.5173 14.7509C20.7408 13.6538 20.5893 12.5135 20.0871 11.5128C19.5849 10.5121 18.7612 9.70908 17.7481 9.23253C16.735 8.75598 15.5912 8.63351 14.5001 8.88478C13.4091 9.13605 12.434 9.74648 11.7314 10.6182C11.0288 11.4899 10.6393 12.5723 10.6254 13.6918C10.6115 14.8113 10.9741 15.9031 11.6549 16.7919C12.3357 17.6807 13.2953 18.3152 14.3798 18.5934V18.5932ZM18.9891 20.6253H14.7612L15.6998 18.7484C16.4283 18.7387 17.1457 18.5688 17.8013 18.251L18.9891 20.6253ZM16.3601 17.4275L16.875 16.3979L17.2426 17.133C16.9619 17.2677 16.6654 17.3666 16.3601 17.4275ZM15.625 10.0003C16.3668 9.99991 17.092 10.2197 17.7089 10.6317C18.3257 11.0438 18.8064 11.6296 19.0901 12.3151C19.3738 13.0005 19.4477 13.7547 19.3025 14.4821C19.1573 15.2096 18.7995 15.8776 18.2744 16.4016L17.434 14.7207C17.3821 14.6169 17.3023 14.5296 17.2035 14.4686C17.1048 14.4076 16.991 14.3753 16.875 14.3753C16.7589 14.3753 16.6452 14.4076 16.5464 14.4686C16.4477 14.5296 16.3679 14.6169 16.316 14.7207L14.9566 17.4395C14.035 17.2728 13.2092 16.7673 12.6415 16.0224C12.0739 15.2775 11.8056 14.3471 11.8894 13.4143C11.9732 12.4815 12.403 11.6138 13.0944 10.982C13.7857 10.3502 14.6884 9.99999 15.625 10.0003Z" fill="#21A18E"/>
</svg>
