<svg width="40" height="40" viewBox="0 0 40 40" fill="none" xmlns="http://www.w3.org/2000/svg">
<g clip-path="url(#clip0)">
<path d="M16.6756 2.67456C8.94653 2.67456 2.68091 8.94018 2.68091 16.6693C2.68091 24.3983 8.94653 30.6639 16.6756 30.6639C24.4047 30.6639 30.6703 24.3983 30.6703 16.6693C30.6619 8.94368 24.4012 2.68297 16.6756 2.67456ZM16.6756 4.00739C20.792 4.01064 24.6495 6.01688 27.0157 9.38535L25.3496 11.0514C24.9442 10.8061 24.4801 10.6748 24.0062 10.6715C22.534 10.6715 21.3405 11.865 21.3405 13.3372C21.3428 13.8116 21.4734 14.2765 21.7184 14.6827L17.3547 19.0464C16.5284 18.5425 15.49 18.5425 14.6637 19.0464L11.6328 16.0155C11.8778 15.6093 12.0084 15.1444 12.0107 14.67C12.0125 13.2007 10.823 12.0082 9.35371 12.0064C8.13859 12.0049 7.07691 12.8268 6.77402 14.0036H4.30163C5.5634 8.17689 10.7139 4.01613 16.6756 4.00739ZM25.339 13.3372C25.339 14.0733 24.7423 14.67 24.0062 14.67C23.27 14.67 22.6733 14.0733 22.6733 13.3372C22.6733 12.601 23.27 12.0044 24.0062 12.0044C24.7423 12.0044 25.339 12.601 25.339 13.3372ZM17.342 21.3341C17.342 22.0703 16.7453 22.667 16.0092 22.667C15.2731 22.667 14.6764 22.0703 14.6764 21.3341C14.6764 20.598 15.2731 20.0013 16.0092 20.0013C16.7453 20.0013 17.342 20.598 17.342 21.3341ZM10.6779 14.67C10.6779 15.4061 10.0812 16.0028 9.34505 16.0028C8.60891 16.0028 8.01222 15.4061 8.01222 14.67C8.01222 13.9339 8.60891 13.3372 9.34505 13.3372C10.0812 13.3372 10.6779 13.9339 10.6779 14.67ZM22.8278 27.7406C20.9458 28.7855 18.8283 29.333 16.6756 29.331C9.68742 29.3358 4.01848 23.6747 4.01374 16.6865C4.0134 16.2355 4.03723 15.7848 4.08504 15.3363H6.77402C7.07699 16.5096 8.13326 17.331 9.34505 17.3356C9.81945 17.3333 10.2844 17.2027 10.6905 16.9577L13.7214 19.9886C13.4764 20.3948 13.3459 20.8597 13.3435 21.3341C13.3435 22.8063 14.537 23.9997 16.0092 23.9997C17.4814 23.9997 18.6748 22.8063 18.6748 21.3341C18.6725 20.8597 18.542 20.3948 18.297 19.9886L22.6607 15.6249C23.0668 15.8699 23.5318 16.0004 24.0062 16.0028C25.4783 16.0028 26.6718 14.8093 26.6718 13.3371C26.6695 12.8627 26.5389 12.3978 26.294 11.9916L27.7467 10.5395C31.1384 16.6478 28.936 24.349 22.8278 27.7406Z" fill="#1BA590"/>
<path d="M33.3359 6.67385C34.5477 6.66927 35.604 5.84799 35.907 4.67461H40.0001V3.34178H35.907C35.604 2.16839 34.5477 1.34712 33.3359 1.34254C31.8637 1.34254 30.6703 2.536 30.6703 4.00819C30.6726 4.4826 30.8031 4.9475 31.0481 5.35368L29.8772 6.52457C24.2748 -0.774411 13.8161 -2.14972 6.5171 3.45274C-0.781888 9.05519 -2.1572 19.514 3.44526 26.813C8.73359 33.7026 18.4275 35.3739 25.7175 30.6528L27.7287 32.664L28.671 33.6063L34.0357 38.9709C35.4001 40.3353 37.6121 40.3353 38.9765 38.9709C40.3409 37.6065 40.3409 35.3945 38.9765 34.0301L33.6118 28.6655L32.6695 27.7232L30.6583 25.712C34.2285 20.2127 34.2285 13.1275 30.6583 7.62815L31.9911 6.29532C32.397 6.5404 32.8618 6.67118 33.3359 6.67385ZM33.3359 2.67536C34.0721 2.67536 34.6688 3.27205 34.6688 4.00819C34.6688 4.74433 34.0721 5.34102 33.3359 5.34102C32.5998 5.34102 32.0031 4.74433 32.0031 4.00819C32.0031 3.27205 32.5999 2.67536 33.3359 2.67536ZM38.0341 34.9725C38.8877 35.8068 38.9032 37.1751 38.0689 38.0286C37.2345 38.8821 35.8662 38.8977 35.0127 38.0634C35.001 38.052 34.9895 38.0404 34.978 38.0286L29.6133 32.664L32.6695 29.6078L38.0341 34.9725ZM31.7272 28.6655L28.671 31.7217L26.8264 29.8771C26.9204 29.8051 27.0083 29.7258 27.101 29.6518C27.1936 29.5778 27.3009 29.4892 27.4002 29.4059C27.5461 29.2833 27.6901 29.1593 27.8313 29.032C27.904 28.9654 27.9733 28.8988 28.0446 28.8321C28.3178 28.5762 28.5824 28.3116 28.8383 28.0384C28.9049 27.9671 28.9716 27.8978 29.0382 27.8252C29.1655 27.6839 29.2895 27.5399 29.4121 27.394C29.4956 27.2954 29.5776 27.1957 29.658 27.0948C29.7313 27.0028 29.8106 26.9148 29.8826 26.8209L31.7272 28.6655ZM29.1429 25.57C28.9329 25.8632 28.7163 26.1505 28.4878 26.427C28.4211 26.5077 28.3498 26.5856 28.2812 26.6649C28.0773 26.9022 27.8667 27.1323 27.6494 27.3553C27.5548 27.4531 27.4586 27.5493 27.3609 27.6439C27.1387 27.8611 26.9086 28.0717 26.6705 28.2757C26.5912 28.3423 26.5132 28.4149 26.4325 28.4822C26.156 28.7108 25.8688 28.9274 25.5755 29.1373C18.6768 34.0659 9.08887 32.4687 4.16032 25.57C-0.768226 18.6713 0.828918 9.08335 7.72764 4.1548C14.6264 -0.773744 24.2143 0.823317 29.1429 7.72212C32.9565 13.0603 32.9565 20.2319 29.1429 25.57Z" fill="#1BA590"/>
</g>
<defs>
<clipPath id="clip0">
<rect width="40" height="40" fill="white"/>
</clipPath>
</defs>
</svg>
