<svg width="13" height="28" viewBox="0 0 13 28" fill="none" xmlns="http://www.w3.org/2000/svg">
<path d="M3.15331 5.81674C3.15331 6.49118 3.15331 9.50349 3.15331 9.50349H0.452332V14.0119H3.15331V27.408H8.70167V14.0119H12.4249C12.4249 14.0119 12.7737 11.8497 12.9424 9.48652C12.4578 9.48652 8.72282 9.48652 8.72282 9.48652C8.72282 9.48652 8.72282 6.86337 8.72282 6.40369C8.72282 5.94337 9.32749 5.32376 9.92557 5.32376C10.5226 5.32376 11.7824 5.32376 12.9486 5.32376C12.9486 4.70935 12.9486 2.58883 12.9486 0.630371C11.3914 0.630371 9.6198 0.630371 8.83841 0.630371C3.01592 0.630093 3.15331 5.14268 3.15331 5.81674Z" fill="#21A18E"/>
</svg>
