<svg width="22" height="22" viewBox="0 0 22 22" fill="none" xmlns="http://www.w3.org/2000/svg">
<path d="M15.2109 11C15.2109 13.3257 13.3257 15.2109 11 15.2109C8.67432 15.2109 6.78906 13.3257 6.78906 11C6.78906 8.67432 8.67432 6.78906 11 6.78906C13.3257 6.78906 15.2109 8.67432 15.2109 11Z" fill="white"/>
<path d="M20.8479 3.54965C20.6455 3.00113 20.3225 2.50464 19.9029 2.09711C19.4954 1.67749 18.9992 1.35455 18.4504 1.15213C18.0052 0.979248 17.3365 0.773468 16.1049 0.717407C14.7725 0.656647 14.373 0.643555 11 0.643555C7.62662 0.643555 7.22714 0.656311 5.89511 0.717072C4.66345 0.773468 3.99441 0.979248 3.54962 1.15213C3.00076 1.35455 2.50427 1.67749 2.09708 2.09711C1.67746 2.50464 1.35452 3.00079 1.15176 3.54965C0.978882 3.99478 0.773102 4.66382 0.717041 5.89548C0.656281 7.22751 0.643188 7.62698 0.643188 11.0004C0.643188 14.3734 0.656281 14.7729 0.717041 16.1053C0.773102 17.3369 0.978882 18.0056 1.15176 18.4507C1.35452 18.9996 1.67712 19.4958 2.09674 19.9033C2.50427 20.3229 3.00043 20.6458 3.54929 20.8483C3.99441 21.0215 4.66345 21.2273 5.89511 21.2833C7.22714 21.3441 7.62628 21.3568 10.9997 21.3568C14.3734 21.3568 14.7729 21.3441 16.1045 21.2833C17.3362 21.2273 18.0052 21.0215 18.4504 20.8483C19.5521 20.4233 20.4229 19.5525 20.8479 18.4507C21.0208 18.0056 21.2266 17.3369 21.283 16.1053C21.3437 14.7729 21.3565 14.3734 21.3565 11.0004C21.3565 7.62698 21.3437 7.22751 21.283 5.89548C21.2269 4.66382 21.0211 3.99478 20.8479 3.54965ZM11 17.487C7.41714 17.487 4.51272 14.5829 4.51272 11C4.51272 7.41717 7.41714 4.51309 11 4.51309C14.5825 4.51309 17.4869 7.41717 17.4869 11C17.4869 14.5829 14.5825 17.487 11 17.487ZM17.7434 5.77261C16.9062 5.77261 16.2274 5.09384 16.2274 4.25662C16.2274 3.4194 16.9062 2.74063 17.7434 2.74063C18.5806 2.74063 19.2594 3.4194 19.2594 4.25662C19.2591 5.09384 18.5806 5.77261 17.7434 5.77261Z" fill="white"/>
</svg>
