<svg width="230" height="56" viewBox="0 0 230 56" fill="none" xmlns="http://www.w3.org/2000/svg">
<path fill-rule="evenodd" clip-rule="evenodd" d="M7.69878 6.1177C11.8217 2.0478 27.4006 1.93662 40.2832 5.04472C48.5596 7.04198 55.7226 10.3677 58.0188 14.8255C60.01 18.691 59.5532 23.8613 57.3155 29.23C55.3082 34.0446 51.8666 39.0214 47.4737 43.3583C44.7525 46.0446 41.6662 48.4864 38.3282 50.4945C34.8959 52.5591 31.201 54.163 27.3607 55.1045C21.9398 56.4338 17.4166 54.8861 13.8186 51.6176C5.02958 43.6328 1.75832 25.3722 4.37015 13.6682C4.85537 11.4928 6.06622 7.72933 7.69878 6.1177Z" stroke="#E6E6E6" stroke-width="0.3528" stroke-miterlimit="22.9256"/>
<path fill-rule="evenodd" clip-rule="evenodd" d="M52.1035 6.53734C47.9805 2.46706 32.4015 2.35607 19.5192 5.46436C11.2428 7.46143 4.07943 10.7872 1.78321 15.2453C-0.207938 19.1107 0.248895 24.281 2.48678 29.6496C4.49367 34.4644 7.93549 39.4412 12.3288 43.778C15.0498 46.4641 18.1361 48.9061 21.4741 50.9141C24.9063 52.9784 28.6012 54.5829 32.4418 55.524C37.8625 56.8532 42.3856 55.3056 45.9836 52.0371C54.7723 44.0522 58.0439 25.7915 55.4321 14.0877C54.9471 11.9122 53.736 8.14897 52.1035 6.53734Z" fill="url(#paint0_linear)"/>
<path fill-rule="evenodd" clip-rule="evenodd" d="M52.1035 49.4627C47.9805 53.5328 32.4015 53.6438 19.5192 50.5357C11.2428 48.5384 4.07943 45.2127 1.78321 40.7547C-0.207938 36.8892 0.248895 31.7189 2.48678 26.3502C4.49367 21.5356 7.93549 16.5591 12.3288 12.2221C15.0498 9.5358 18.1361 7.09402 21.4741 5.08597C24.9063 3.02148 28.6012 1.41722 32.4418 0.476079C37.8625 -0.853341 42.3856 0.694269 45.9836 3.9628C54.7723 11.9477 58.0439 30.2082 55.4321 41.9122C54.9471 44.0877 53.736 47.8511 52.1035 49.4627Z" fill="url(#paint1_linear)"/>
<path fill-rule="evenodd" clip-rule="evenodd" d="M74.8845 26.6835C73.916 26.6835 73.0319 26.531 72.2326 26.2255C71.4333 25.9204 70.7507 25.4912 70.1849 24.9383C69.6192 24.3857 69.1783 23.726 68.8633 22.96C68.5485 22.1941 68.3907 21.3564 68.3907 20.4463C68.3907 19.5479 68.5515 18.7212 68.8721 17.9668C69.1933 17.2124 69.6394 16.559 70.2111 16.0057C70.7831 15.4528 71.4655 15.024 72.2591 14.7185C73.0526 14.4132 73.916 14.2607 74.8492 14.2607C75.7245 14.2607 76.4568 14.3268 77.0461 14.4594C77.6351 14.5918 78.1689 14.7733 78.6476 15.0036V17.4743H78.4549C78.0581 17.244 77.6032 17.0598 77.0894 16.9215C76.5764 16.7832 75.9929 16.7143 75.3395 16.7143C74.7094 16.7143 74.1434 16.8092 73.6418 16.9993C73.1399 17.1893 72.714 17.4514 72.3638 17.7857C72.0141 18.1195 71.7455 18.5142 71.559 18.9689C71.3723 19.4239 71.2789 19.9163 71.2789 20.4463C71.2789 20.976 71.3665 21.4713 71.5415 21.9323C71.7163 22.393 71.9701 22.7932 72.3028 23.133C72.6351 23.4728 73.0377 23.7404 73.5102 23.9362C73.9832 24.1321 74.5227 24.23 75.1295 24.23C75.6311 24.23 76.057 24.1554 76.4072 24.0053V20.118H79.1548V25.578C78.5831 25.9462 77.9503 26.2229 77.2558 26.407C76.5616 26.5913 75.7711 26.6835 74.8845 26.6835ZM74.8667 43.7349C73.9218 43.7349 73.0526 43.5794 72.2591 43.2684C71.4655 42.9574 70.7831 42.5254 70.2111 41.9723C69.6394 41.4195 69.1933 40.7632 68.8721 40.0027C68.5515 39.2425 68.3907 38.413 68.3907 37.5147C68.3907 36.6166 68.5515 35.787 68.8721 35.0267C69.1933 34.2665 69.6394 33.61 70.2111 33.0569C70.7831 32.5041 71.4655 32.0751 72.2591 31.7697C73.0526 31.4644 73.9218 31.3121 74.8667 31.3121C75.742 31.3121 76.477 31.378 77.0722 31.5106C77.6673 31.643 78.198 31.8245 78.665 32.0548V34.5256H78.49C78.0931 34.2952 77.6351 34.1109 77.1159 33.9729C76.5965 33.8344 76.0104 33.7655 75.3571 33.7655C74.7268 33.7655 74.1578 33.8606 73.6503 34.0507C73.143 34.2405 72.714 34.5055 72.3638 34.8453C72.0141 35.1851 71.7455 35.5824 71.559 36.0376C71.3723 36.4923 71.2789 36.985 71.2789 37.5147C71.2789 38.0449 71.3723 38.54 71.559 39.0006C71.7455 39.4614 72.0141 39.8588 72.3638 40.1927C72.714 40.5268 73.143 40.7918 73.6503 40.9876C74.1578 41.1835 74.7268 41.2814 75.3571 41.2814C76.0219 41.2814 76.6113 41.2094 77.1245 41.0655C77.6382 40.9213 78.0931 40.7344 78.49 40.5039H78.665V42.9745C78.198 43.2167 77.6673 43.4036 77.0722 43.5362C76.477 43.6686 75.742 43.7349 74.8667 43.7349ZM81.2028 14.52H83.9506V23.9017H88.6238V26.4244H81.2028V14.52ZM95.5198 26.6835C94.5747 26.6835 93.7051 26.528 92.9122 26.2172C92.1186 25.906 91.4331 25.474 90.8554 24.9209C90.2777 24.3681 89.8259 23.7087 89.4989 22.9428C89.1722 22.1769 89.0089 21.3389 89.0089 20.429C89.0089 19.5305 89.1722 18.7011 89.4989 17.9409C89.8259 17.181 90.2777 16.5298 90.8554 15.9887C91.4331 15.4472 92.1186 15.024 92.9122 14.7185C93.7051 14.4132 94.5747 14.2607 95.5198 14.2607C96.4532 14.2607 97.3168 14.4132 98.1101 14.7185C98.9035 15.024 99.589 15.4472 100.167 15.9887C100.744 16.5298 101.196 17.181 101.523 17.9409C101.85 18.7011 102.013 19.5305 102.013 20.429C102.013 21.3389 101.85 22.1769 101.523 22.9428C101.196 23.7087 100.744 24.3681 100.167 24.9209C99.589 25.474 98.9035 25.906 98.1101 26.2172C97.3168 26.528 96.4532 26.6835 95.5198 26.6835ZM95.5198 24.23C96.0447 24.23 96.5261 24.1321 96.9637 23.9362C97.4012 23.7404 97.7805 23.4728 98.1015 23.133C98.4223 22.7932 98.6732 22.393 98.8542 21.9323C99.0347 21.4713 99.1253 20.9703 99.1253 20.429C99.1253 19.8991 99.0347 19.4097 98.8542 18.9604C98.6732 18.5111 98.4253 18.1195 98.1101 17.7857C97.7953 17.4514 97.416 17.1893 96.9726 16.9993C96.5292 16.8092 96.0447 16.7143 95.5198 16.7143C94.9946 16.7143 94.5104 16.8092 94.0672 16.9993C93.6238 17.1893 93.2418 17.4514 92.9208 17.7857C92.5998 18.1195 92.3489 18.5111 92.1679 18.9604C91.987 19.4097 91.897 19.8991 91.897 20.429C91.897 20.9703 91.987 21.4713 92.1679 21.9323C92.3489 22.393 92.5998 22.7932 92.9208 23.133C93.2418 23.4728 93.6238 23.7404 94.0672 23.9362C94.5104 24.1321 94.9946 24.23 95.5198 24.23ZM103.868 14.52H108.944C110.169 14.52 111.129 14.7992 111.824 15.3578C112.517 15.9165 112.865 16.7143 112.865 17.7509C112.865 18.0734 112.821 18.3787 112.734 18.6666C112.646 18.9545 112.532 19.211 112.392 19.4356C112.252 19.6603 112.092 19.8476 111.911 19.997C111.73 20.1468 111.54 20.2504 111.342 20.308V20.4463C111.937 20.5614 112.41 20.8465 112.76 21.3016C113.11 21.7566 113.285 22.3413 113.285 23.0551C113.285 23.608 113.186 24.0917 112.987 24.5063C112.789 24.9209 112.515 25.2725 112.165 25.5604C111.814 25.8484 111.394 26.0644 110.904 26.2083C110.414 26.3523 109.872 26.4244 109.277 26.4244H103.868V14.52ZM108.524 19.5479C108.968 19.5479 109.341 19.4239 109.644 19.1763C109.948 18.929 110.105 18.5458 110.117 18.0274C110.117 17.509 109.953 17.1461 109.627 16.9387C109.3 16.7315 108.868 16.6279 108.332 16.6279H106.494V19.5479H108.524ZM108.769 24.3163C109.026 24.3163 109.268 24.2932 109.496 24.2474C109.723 24.2012 109.922 24.1177 110.091 23.9968C110.26 23.8758 110.394 23.7146 110.493 23.5129C110.592 23.3114 110.642 23.0494 110.642 22.7269C110.642 22.2087 110.458 21.8342 110.091 21.6039C109.723 21.3736 109.271 21.2582 108.734 21.2582H106.494V24.3163H108.769ZM121.073 26.6835C120.128 26.6835 119.259 26.528 118.465 26.2172C117.672 25.906 116.987 25.474 116.409 24.9209C115.831 24.3681 115.38 23.7087 115.053 22.9428C114.726 22.1769 114.563 21.3389 114.563 20.429C114.563 19.5305 114.726 18.7011 115.053 17.9409C115.38 17.181 115.831 16.5298 116.409 15.9887C116.987 15.4472 117.672 15.024 118.465 14.7185C119.259 14.4132 120.128 14.2607 121.073 14.2607C122.007 14.2607 122.87 14.4132 123.664 14.7185C124.457 15.024 125.143 15.4472 125.721 15.9887C126.298 16.5298 126.75 17.181 127.077 17.9409C127.403 18.7011 127.567 19.5305 127.567 20.429C127.567 21.3389 127.403 22.1769 127.077 22.9428C126.75 23.7087 126.298 24.3681 125.721 24.9209C125.143 25.474 124.457 25.906 123.664 26.2172C122.87 26.528 122.007 26.6835 121.073 26.6835ZM121.073 24.23C121.598 24.23 122.08 24.1321 122.517 23.9362C122.955 23.7404 123.334 23.4728 123.655 23.133C123.976 22.7932 124.227 22.393 124.407 21.9323C124.588 21.4713 124.679 20.9703 124.679 20.429C124.679 19.8991 124.588 19.4097 124.407 18.9604C124.227 18.5111 123.979 18.1195 123.664 17.7857C123.349 17.4514 122.969 17.1893 122.526 16.9993C122.083 16.8092 121.598 16.7143 121.073 16.7143C120.548 16.7143 120.064 16.8092 119.621 16.9993C119.177 17.1893 118.795 17.4514 118.474 17.7857C118.153 18.1195 117.902 18.5111 117.722 18.9604C117.541 19.4097 117.45 19.8991 117.45 20.429C117.45 20.9703 117.541 21.4713 117.722 21.9323C117.902 22.393 118.153 22.7932 118.474 23.133C118.795 23.4728 119.177 23.7404 119.621 23.9362C120.064 24.1321 120.548 24.23 121.073 24.23ZM86.4184 43.7349C85.4734 43.7349 84.6039 43.5794 83.8108 43.2684C83.0172 42.9574 82.3317 42.5254 81.754 41.9723C81.1763 41.4195 80.7245 40.7601 80.3975 39.994C80.071 39.2282 79.9075 38.3901 79.9075 37.4803C79.9075 36.5817 80.071 35.7523 80.3975 34.9922C80.7245 34.232 81.1763 33.5812 81.754 33.0397C82.3317 32.4984 83.0172 32.0751 83.8108 31.7697C84.6039 31.4644 85.4734 31.3121 86.4184 31.3121C87.352 31.3121 88.2154 31.4644 89.0089 31.7697C89.8021 32.0751 90.4878 32.4984 91.0655 33.0397C91.643 33.5812 92.095 34.232 92.4218 34.9922C92.7483 35.7523 92.9118 36.5817 92.9118 37.4803C92.9118 38.3901 92.7483 39.2282 92.4218 39.994C92.095 40.7601 91.643 41.4195 91.0655 41.9723C90.4878 42.5254 89.8021 42.9574 89.0089 43.2684C88.2154 43.5794 87.352 43.7349 86.4184 43.7349ZM86.4184 41.2814C86.9437 41.2814 87.4247 41.1835 87.8625 40.9876C88.3 40.7918 88.6791 40.5239 89.0001 40.1845C89.3211 39.8444 89.5718 39.4442 89.7528 38.9833C89.9333 38.5225 90.0239 38.0216 90.0239 37.4803C90.0239 36.9503 89.9333 36.4609 89.7528 36.0118C89.5718 35.5624 89.3238 35.1707 89.0089 34.8367C88.6937 34.5026 88.3145 34.2405 87.8712 34.0507C87.4278 33.8606 86.9437 33.7655 86.4184 33.7655C85.8934 33.7655 85.409 33.8606 84.9658 34.0507C84.5224 34.2405 84.1404 34.5026 83.8192 34.8367C83.4986 35.1707 83.2476 35.5624 83.0665 36.0118C82.886 36.4609 82.7956 36.9503 82.7956 37.4803C82.7956 38.0216 82.886 38.5225 83.0665 38.9833C83.2476 39.4442 83.4986 39.8444 83.8192 40.1845C84.1404 40.5239 84.5224 40.7918 84.9658 40.9876C85.409 41.1835 85.8934 41.2814 86.4184 41.2814ZM96.1324 31.5711L101.103 38.2231H101.243L106.214 31.5711H107.579V43.4756H104.953V37.0656H104.796L101.278 41.6788H101.051L97.5503 37.0656H97.3926V43.4756H94.7671V31.5711H96.1324ZM111.394 31.5711L116.365 38.2231H116.505L121.476 31.5711H122.841V43.4756H120.216V37.0656H120.058L116.54 41.6788H116.313L112.812 37.0656H112.655V43.4756H110.029V31.5711H111.394ZM130.489 43.7349C129.638 43.7349 128.879 43.6141 128.214 43.372C127.549 43.1301 126.989 42.7816 126.534 42.3267C126.079 41.8719 125.735 41.3217 125.501 40.6766C125.268 40.0315 125.151 39.3118 125.151 38.5168V31.5711H127.899V38.396C127.899 38.7991 127.949 39.1765 128.048 39.5275C128.147 39.879 128.305 40.1845 128.521 40.4434C128.736 40.7026 129.011 40.9073 129.343 41.0568C129.676 41.2066 130.075 41.2814 130.542 41.2814C131.021 41.2814 131.426 41.2066 131.759 41.0568C132.091 40.9073 132.362 40.6997 132.572 40.4347C132.782 40.1698 132.937 39.8616 133.036 39.5105C133.136 39.1589 133.185 38.7875 133.185 38.396V31.5711H135.933V38.5168C135.933 39.3118 135.808 40.0315 135.557 40.6766C135.306 41.3217 134.944 41.8719 134.472 42.3267C133.999 42.7816 133.427 43.1301 132.756 43.372C132.085 43.6141 131.33 43.7349 130.489 43.7349ZM146.084 38.776V31.5711H148.78V43.4756H147.447L141.079 36.4954H140.939V43.4756H138.243V31.5711H139.608L145.944 38.776H146.084ZM151.23 31.5711H153.978V43.4756H151.23V31.5711ZM162.326 43.7349C161.382 43.7349 160.512 43.5794 159.719 43.2684C158.925 42.9574 158.243 42.5254 157.671 41.9723C157.099 41.4195 156.653 40.7632 156.332 40.0027C156.011 39.2425 155.85 38.413 155.85 37.5147C155.85 36.6166 156.011 35.787 156.332 35.0267C156.653 34.2665 157.099 33.61 157.671 33.0569C158.243 32.5041 158.925 32.0751 159.719 31.7697C160.512 31.4644 161.382 31.3121 162.326 31.3121C163.202 31.3121 163.937 31.378 164.532 31.5106C165.127 31.643 165.658 31.8245 166.125 32.0548V34.5256H165.95C165.553 34.2952 165.095 34.1109 164.576 33.9729C164.056 33.8344 163.47 33.7655 162.817 33.7655C162.187 33.7655 161.617 33.8606 161.11 34.0507C160.603 34.2405 160.174 34.5055 159.824 34.8453C159.474 35.1851 159.205 35.5824 159.019 36.0376C158.832 36.4923 158.739 36.985 158.739 37.5147C158.739 38.0449 158.832 38.54 159.019 39.0006C159.205 39.4614 159.474 39.8588 159.824 40.1927C160.174 40.5268 160.603 40.7918 161.11 40.9876C161.617 41.1835 162.187 41.2814 162.817 41.2814C163.482 41.2814 164.071 41.2094 164.584 41.0655C165.098 40.9213 165.553 40.7344 165.95 40.5039H166.125V42.9745C165.658 43.2167 165.127 43.4036 164.532 43.5362C163.937 43.6686 163.202 43.7349 162.326 43.7349ZM175.524 41.9206H170.255L169.573 43.4756H166.72L172.25 31.5885H173.546L179.076 43.4756H176.206L175.524 41.9206ZM174.683 39.9681L172.968 36.029H172.828L171.113 39.9681H174.683ZM181.054 34.0937V43.4756H183.802V34.0937H187.128V31.5711H177.711V34.0937H181.054ZM188.598 31.5711H191.346V43.4756H188.598V31.5711ZM199.729 43.7349C198.784 43.7349 197.915 43.5794 197.122 43.2684C196.328 42.9574 195.642 42.5254 195.065 41.9723C194.487 41.4195 194.035 40.7601 193.708 39.994C193.382 39.2282 193.218 38.3901 193.218 37.4803C193.218 36.5817 193.382 35.7523 193.708 34.9922C194.035 34.232 194.487 33.5812 195.065 33.0397C195.642 32.4984 196.328 32.0751 197.122 31.7697C197.915 31.4644 198.784 31.3121 199.729 31.3121C200.663 31.3121 201.526 31.4644 202.32 31.7697C203.113 32.0751 203.799 32.4984 204.376 33.0397C204.954 33.5812 205.406 34.232 205.733 34.9922C206.059 35.7523 206.223 36.5817 206.223 37.4803C206.223 38.3901 206.059 39.2282 205.733 39.994C205.406 40.7601 204.954 41.4195 204.376 41.9723C203.799 42.5254 203.113 42.9574 202.32 43.2684C201.526 43.5794 200.663 43.7349 199.729 43.7349ZM199.729 41.2814C200.254 41.2814 200.736 41.1835 201.173 40.9876C201.611 40.7918 201.99 40.5239 202.311 40.1845C202.632 39.8444 202.883 39.4442 203.064 38.9833C203.244 38.5225 203.335 38.0216 203.335 37.4803C203.335 36.9503 203.244 36.4609 203.064 36.0118C202.883 35.5624 202.635 35.1707 202.32 34.8367C202.004 34.5026 201.626 34.2405 201.182 34.0507C200.738 33.8606 200.254 33.7655 199.729 33.7655C199.204 33.7655 198.72 33.8606 198.277 34.0507C197.833 34.2405 197.451 34.5026 197.13 34.8367C196.809 35.1707 196.559 35.5624 196.377 36.0118C196.197 36.4609 196.106 36.9503 196.106 37.4803C196.106 38.0216 196.197 38.5225 196.377 38.9833C196.559 39.4442 196.809 39.8444 197.13 40.1845C197.451 40.5239 197.833 40.7918 198.277 40.9876C198.72 41.1835 199.204 41.2814 199.729 41.2814ZM215.919 38.776V31.5711H218.614V43.4756H217.281L210.913 36.4954H210.773V43.4756H208.078V31.5711H209.443L215.779 38.776H215.919ZM224.705 43.7521C224.379 43.7521 224.028 43.729 223.655 43.683C223.282 43.637 222.914 43.5766 222.552 43.5044C222.191 43.4296 221.841 43.3373 221.502 43.2281C221.164 43.1216 220.861 42.9978 220.592 42.8593V40.3656H220.785C221.018 40.5039 221.286 40.6306 221.59 40.7456C221.893 40.8609 222.214 40.9647 222.552 41.0568C222.891 41.1492 223.244 41.2208 223.611 41.2728C223.979 41.3246 224.338 41.3507 224.688 41.3507C224.956 41.3507 225.219 41.3302 225.475 41.2901C225.732 41.2496 225.96 41.1806 226.158 41.0827C226.356 40.9848 226.514 40.8581 226.631 40.7026C226.747 40.5442 226.806 40.3512 226.806 40.1209C226.806 39.8101 226.727 39.5709 226.569 39.4038C226.412 39.2368 226.196 39.1015 225.922 38.9979C225.648 38.8941 225.324 38.7964 224.95 38.7099C224.577 38.6235 224.174 38.5055 223.743 38.3555C223.311 38.2174 222.908 38.0532 222.535 37.8632C222.162 37.6731 221.835 37.4456 221.555 37.1808C221.275 36.9128 221.053 36.6018 220.89 36.2448C220.726 35.8877 220.645 35.4701 220.645 34.9981C220.645 34.3416 220.77 33.777 221.021 33.3105C221.272 32.844 221.622 32.4637 222.071 32.1701C222.521 31.8733 223.051 31.6574 223.664 31.5193C224.276 31.3811 224.945 31.3121 225.668 31.3121C225.924 31.3121 226.202 31.3263 226.499 31.3551C226.797 31.3841 227.095 31.4243 227.392 31.4762C227.689 31.5279 227.981 31.5942 228.267 31.6748C228.553 31.7553 228.807 31.8533 229.028 31.9684V34.4566H228.836C228.637 34.3416 228.396 34.2348 228.11 34.1369C227.824 34.039 227.52 33.9526 227.199 33.8778C226.878 33.8028 226.558 33.7424 226.237 33.6964C225.916 33.6503 225.621 33.627 225.353 33.627C224.828 33.627 224.402 33.7164 224.075 33.895C223.748 34.0736 223.585 34.3934 223.585 34.8538C223.585 35.1072 223.652 35.3148 223.786 35.476C223.92 35.6372 224.093 35.7696 224.303 35.8734C224.513 35.977 224.746 36.0605 225.003 36.1241C225.259 36.1872 225.516 36.2535 225.773 36.3226C226.321 36.4493 226.838 36.6046 227.322 36.7891C227.806 36.9734 228.229 37.2067 228.591 37.4888C228.953 37.7712 229.239 38.1079 229.448 38.4996C229.659 38.8911 229.764 39.3635 229.764 39.9165C229.764 40.5961 229.641 41.1778 229.396 41.6615C229.151 42.1452 228.807 42.5426 228.363 42.8538C227.92 43.1646 227.389 43.3921 226.771 43.5362C226.152 43.6802 225.464 43.7521 224.705 43.7521Z" fill="#2A2A2A"/>
<path fill-rule="evenodd" clip-rule="evenodd" d="M33.0905 46.79V46.7898V46.79ZM33.0905 46.7898L32.9604 46.7896V46.7894L32.8307 46.7885L32.7014 46.7872V46.7868L32.5721 46.7845L32.4431 46.7817L32.315 46.7781L32.1866 46.7737V46.7735L32.0588 46.7688C29.6757 46.6703 27.4631 46.2288 25.4219 45.4435C23.0885 44.5456 21.0812 43.284 19.3999 41.6579C17.7186 40.0325 16.4063 38.1015 15.4627 35.8658C14.5277 33.6509 14.0563 31.2366 14.0475 28.6224L14.0473 28.5495V28.4988L14.0475 28.4258C14.0563 25.8119 14.5277 23.3974 15.4627 21.1825C16.4063 18.9468 17.7186 17.0162 19.3999 15.3904C21.0812 13.7643 23.0885 12.5027 25.4219 11.6052C27.4631 10.8195 29.6755 10.378 32.0588 10.2799L32.1866 10.2748V10.2746L32.315 10.2704L32.4431 10.2668L32.5721 10.264L32.7014 10.2615L32.8307 10.2598L32.9604 10.2589V10.2587L33.0905 10.2585V10.2583V10.2585H33.211V10.2587L33.3307 10.2593L33.4498 10.2596V10.2598L33.5684 10.2608V10.261L33.6864 10.2621L33.8036 10.2638V10.264L33.9203 10.2653V10.2655L34.0362 10.2676L34.1519 10.2699V10.27L34.2668 10.2727V10.2731L34.3809 10.2757V10.2759L34.4945 10.279V10.2791L34.6079 10.2825L34.7203 10.2863V10.2867L34.832 10.2905V10.2907L34.9435 10.2949V10.2951L35.054 10.2996V10.2998L35.1641 10.3047L35.2739 10.3098V10.31L35.3827 10.3155V10.3157L35.4911 10.3214V10.3216L35.5985 10.3274V10.3276L35.7056 10.3339V10.3341L35.812 10.3407L35.918 10.3475V10.3477L36.0229 10.3549L36.1278 10.3625L36.2316 10.3704L36.3351 10.3784V10.3786L36.4381 10.3867V10.3869L36.5402 10.3956C36.6422 10.4047 36.7432 10.4134 36.8435 10.4233V10.4235L36.9431 10.4331V10.4335L37.0425 10.4432V10.4434C37.1413 10.4536 37.2395 10.4644 37.3364 10.4754V10.4757L37.4333 10.4867L37.5296 10.4981V10.4983L37.7199 10.5222V10.5223L37.9081 10.5471V10.5473L38.0016 10.5602V10.5606L38.0939 10.5735V10.5737C38.1865 10.5869 38.2779 10.6007 38.3682 10.6149V10.6152L38.548 10.6441V10.6443C38.6668 10.664 38.7842 10.6845 38.9001 10.7057V10.7061C39.0739 10.7381 39.2439 10.7714 39.4104 10.8068L39.5756 10.8426L39.6226 10.8546C42.9758 11.6345 46.5905 16.091 45.1326 17.8663C44.6327 18.7379 43.0459 19.0383 39.7299 18.1083C38.5507 17.7776 37.2349 17.5755 35.7833 17.5035L35.7647 17.5026L35.696 17.4996L35.6781 17.4984L35.6083 17.4956L35.5918 17.495L35.5202 17.492L35.5051 17.4916L35.432 17.4888L35.418 17.4882L35.3435 17.4859L35.3307 17.4855L35.2428 17.4829L35.1653 17.4808L35.1553 17.4806L35.0669 17.4789L34.9861 17.4772H34.9784L34.8957 17.4757H34.8898C34.7712 17.4744 34.6519 17.4734 34.5316 17.4734H34.4448L34.3585 17.474V17.4744L34.2723 17.4751V17.4755L34.1864 17.4766L34.1008 17.4785L34.0152 17.4808L33.9303 17.4837C32.3153 17.5397 30.843 17.8242 29.5134 18.3369C28.0209 18.9127 26.76 19.6921 25.7304 20.6742C24.7013 21.6564 23.9121 22.8252 23.3632 24.1798C22.8227 25.5134 22.548 26.9459 22.5395 28.4764V28.4988V28.5495V28.5717C22.548 30.1026 22.8225 31.5345 23.3632 32.8683C23.9121 34.2231 24.7013 35.3919 25.7304 36.3742C26.76 37.3564 28.0209 38.1356 29.5134 38.7114C30.8432 39.2243 32.3151 39.5086 33.9303 39.5647V39.5648L34.0152 39.5675L34.1008 39.5698L34.1864 39.5717V39.572L34.2723 39.5732L34.3585 39.5743L34.4448 39.5749H34.5316C34.6519 39.5749 34.7712 39.5743 34.8898 39.5726H34.8957L34.9784 39.5711H34.9861L35.0669 39.5698L35.1553 39.5677L35.1653 39.5675L35.2428 39.5654L35.3307 39.5629L35.3435 39.5626L35.418 39.5601L35.432 39.5595L35.5051 39.5571L35.5202 39.5563L35.5918 39.5537L35.6083 39.5527L35.6781 39.5499L35.696 39.5491L35.7647 39.5457L35.7833 39.5448C37.2349 39.4724 38.5507 39.2707 39.7299 38.94C43.0459 38.01 44.6324 38.3108 45.1326 39.1821C46.5905 40.9571 42.9758 45.4138 39.6226 46.1938L39.5756 46.2057L39.4104 46.2415C39.2439 46.2769 39.0741 46.3106 38.9001 46.3426C38.7842 46.3638 38.6668 46.3843 38.548 46.404V46.4042L38.3682 46.4332V46.4333C38.2779 46.4476 38.1863 46.4614 38.0939 46.4747V46.4748L38.0016 46.4881V46.4883L37.9081 46.501V46.5012L37.7199 46.526V46.5262L37.5296 46.55V46.5502L37.4333 46.5616L37.3364 46.5729C37.2393 46.5843 37.1413 46.5947 37.0425 46.605V46.6051L36.9431 46.615V46.6154L36.8435 46.6248V46.625L36.642 46.6436V46.644L36.5402 46.6527V46.6531L36.4381 46.6614V46.6616L36.3351 46.6697V46.6699L36.2316 46.6779V46.6783L36.1278 46.6858V46.686L36.0229 46.6934L35.918 46.7006V46.7008L35.812 46.7076V46.7078L35.7056 46.7142V46.7144L35.5985 46.7207V46.7209L35.4911 46.7267V46.7269L35.3827 46.7326V46.7328L35.2739 46.7383V46.7385L35.1641 46.7436L35.054 46.7485V46.7487L34.9435 46.7533V46.7534L34.832 46.7576V46.7578L34.7203 46.762L34.6079 46.7658L34.4945 46.7692V46.7694L34.3809 46.7724V46.7726L34.2668 46.7756L34.1519 46.7783V46.7785L34.0362 46.7807L33.9203 46.7828V46.783L33.8036 46.7845V46.7849L33.6864 46.7862L33.5684 46.7874V46.7875L33.4498 46.7885V46.7887L33.3307 46.7891V46.7894L33.211 46.7896V46.7898H33.0905Z" fill="white"/>
<path fill-rule="evenodd" clip-rule="evenodd" d="M136.763 17.3438C137.175 17.3438 137.542 17.401 137.863 17.5146C138.184 17.6283 138.457 17.7885 138.68 17.9955C138.904 18.2024 139.075 18.4471 139.194 18.7298C139.312 19.0126 139.372 19.3227 139.372 19.6606C139.372 20.4536 139.14 21.0447 138.673 21.4342C138.207 21.8239 137.558 22.0187 136.725 22.0187H135.108V24.4695H134.07V17.3438H136.763ZM136.8 21.1294C137.298 21.1294 137.678 20.9966 137.94 20.7311C138.204 20.4655 138.334 20.1157 138.334 19.6812C138.334 19.4812 138.302 19.2933 138.235 19.1176C138.169 18.9418 138.071 18.7884 137.94 18.6577C137.811 18.5264 137.65 18.423 137.456 18.3473C137.264 18.2715 137.046 18.2332 136.8 18.2332H135.108V21.1294H136.8ZM146.035 24.4695H144.83L142.929 21.6152H141.593V24.4695H140.556V17.3336H143.28C144.055 17.3336 144.657 17.5249 145.087 17.9076C145.516 18.2902 145.731 18.8126 145.731 19.4744C145.731 19.7365 145.687 19.9795 145.6 20.2036C145.513 20.4277 145.392 20.6243 145.239 20.793C145.085 20.9621 144.902 21.1033 144.689 21.2171C144.476 21.3311 144.244 21.4084 143.992 21.4499L146.035 24.4695ZM143.243 20.7985C143.685 20.7985 144.037 20.6777 144.299 20.4364C144.563 20.1949 144.694 19.8812 144.694 19.495C144.694 19.0884 144.563 18.7745 144.299 18.5539C144.037 18.3334 143.685 18.223 143.243 18.223H141.593V20.7985H143.243ZM159.466 17.3438H161.97C162.514 17.3438 163.017 17.4285 163.478 17.5972C163.939 17.7664 164.337 18.0058 164.672 18.3162C165.008 18.6266 165.27 19.0003 165.458 19.4382C165.647 19.8759 165.741 20.3638 165.741 20.9015C165.741 21.4395 165.647 21.9291 165.458 22.3702C165.27 22.8115 165.008 23.1871 164.672 23.4973C164.337 23.8076 163.939 24.0471 163.478 24.2163C163.017 24.385 162.514 24.4695 161.97 24.4695H159.466V17.3438ZM161.98 23.4869C162.364 23.4869 162.719 23.4267 163.043 23.306C163.368 23.1854 163.648 23.013 163.882 22.7891C164.115 22.5651 164.299 22.2927 164.432 21.972C164.564 21.6514 164.631 21.2947 164.631 20.9015C164.631 20.5294 164.568 20.1847 164.442 19.8674C164.316 19.5504 164.136 19.278 163.903 19.0505C163.668 18.8228 163.389 18.6452 163.065 18.5179C162.74 18.3903 162.378 18.3266 161.98 18.3266H160.524V23.4869H161.98ZM167.438 18.2747C167.257 18.2747 167.098 18.2092 166.962 18.0781C166.826 17.9474 166.757 17.7885 166.757 17.6023C166.757 17.4095 166.826 17.2476 166.962 17.1165C167.098 16.9853 167.257 16.9199 167.438 16.9199C167.627 16.9199 167.791 16.9871 167.931 17.1216C168.071 17.2559 168.14 17.4163 168.14 17.6023C168.14 17.7817 168.072 17.9385 167.936 18.073C167.8 18.2075 167.634 18.2747 167.438 18.2747ZM166.935 19.2986H167.952V24.4695H166.935V19.2986ZM174.51 19.8157H173.64C173.906 20.0436 174.117 20.3121 174.274 20.6224C174.432 20.9326 174.51 21.2637 174.51 21.6152C174.51 22.0772 174.402 22.4857 174.185 22.8408C173.969 23.1958 173.682 23.4801 173.326 23.6939C173.689 23.811 173.971 23.9782 174.169 24.1956C174.369 24.4127 174.468 24.6972 174.468 25.0485C174.468 25.2968 174.416 25.5313 174.311 25.7522C174.206 25.9724 174.047 26.1639 173.834 26.3261C173.621 26.4878 173.349 26.6155 173.017 26.7086C172.685 26.8016 172.289 26.8484 171.828 26.8484C171.339 26.8484 170.89 26.7982 170.482 26.6984C170.073 26.5982 169.726 26.4727 169.439 26.3208V25.3902H169.534C169.778 25.5486 170.105 25.6847 170.513 25.7984C170.922 25.9122 171.36 25.969 171.828 25.969C172.373 25.969 172.782 25.876 173.054 25.6898C173.326 25.5037 173.462 25.2694 173.462 24.9866C173.462 24.8074 173.424 24.6591 173.347 24.5419C173.27 24.4246 173.16 24.3334 173.017 24.2678C172.874 24.2025 172.703 24.1557 172.504 24.1282C172.305 24.1006 172.083 24.0867 171.838 24.0867C171.433 24.0867 171.065 24.0299 170.733 23.9161C170.402 23.8026 170.119 23.6388 169.885 23.425C169.651 23.2111 169.471 22.9509 169.345 22.6442C169.219 22.3374 169.157 21.9944 169.157 21.6152C169.157 21.2499 169.224 20.9154 169.361 20.6119C169.497 20.3087 169.684 20.0483 169.921 19.8312C170.159 19.614 170.44 19.445 170.765 19.3244C171.089 19.2039 171.44 19.1435 171.817 19.1435H174.51V19.8157ZM171.838 23.2594C172.097 23.2594 172.331 23.213 172.54 23.12C172.75 23.0268 172.93 22.9043 173.08 22.7528C173.23 22.6013 173.347 22.4272 173.431 22.2306C173.515 22.034 173.557 21.8289 173.557 21.6152C173.557 21.3463 173.506 21.1101 173.405 20.9069C173.304 20.7034 173.171 20.5345 173.007 20.4C172.842 20.2657 172.657 20.1638 172.451 20.0951C172.245 20.0259 172.041 19.9915 171.838 19.9915C171.622 19.9915 171.411 20.0259 171.205 20.0951C170.999 20.1638 170.815 20.2657 170.655 20.4C170.494 20.5345 170.363 20.7034 170.262 20.9069C170.16 21.1101 170.11 21.3463 170.11 21.6152C170.11 21.8844 170.153 22.1204 170.241 22.3236C170.328 22.527 170.45 22.6977 170.607 22.8357C170.765 22.9734 170.948 23.0787 171.157 23.1509C171.367 23.2232 171.594 23.2594 171.838 23.2594ZM176.302 18.2747C176.12 18.2747 175.961 18.2092 175.825 18.0781C175.688 17.9474 175.621 17.7885 175.621 17.6023C175.621 17.4095 175.688 17.2476 175.825 17.1165C175.961 16.9853 176.12 16.9199 176.302 16.9199C176.49 16.9199 176.654 16.9871 176.794 17.1216C176.934 17.2559 177.003 17.4163 177.003 17.6023C177.003 17.7817 176.935 17.9385 176.799 18.073C176.663 18.2075 176.497 18.2747 176.302 18.2747ZM175.799 19.2986H176.815V24.4695H175.799V19.2986ZM181.529 24.4591C181.369 24.5212 181.204 24.5659 181.037 24.5936C180.869 24.6212 180.702 24.6351 180.534 24.6351C179.235 24.6351 178.585 23.8937 178.585 22.4115V20.1466H177.789V19.2986H178.638L178.816 18.0781H179.581V19.2986H181.299V20.1466H179.581L179.591 22.4219C179.591 22.8562 179.677 23.182 179.848 23.399C180.019 23.6163 180.304 23.7248 180.702 23.7248C180.862 23.7248 181 23.7093 181.116 23.6784C181.231 23.6473 181.334 23.6113 181.425 23.5697H181.519L181.529 24.4591ZM184.683 24.6351C184.285 24.6351 183.918 24.5659 183.583 24.4281C183.248 24.2902 182.959 24.0989 182.718 23.8543C182.478 23.6095 182.291 23.3215 182.158 22.9907C182.025 22.6598 181.959 22.3012 181.959 21.9152C181.959 21.5224 182.025 21.1569 182.158 20.819C182.291 20.4811 182.478 20.1881 182.718 19.9398C182.959 19.6918 183.248 19.4971 183.583 19.3555C183.918 19.2143 184.285 19.1435 184.683 19.1435C184.948 19.1435 185.189 19.1744 185.406 19.2365C185.622 19.2986 185.814 19.3795 185.982 19.4795C186.15 19.5797 186.293 19.6933 186.411 19.821C186.53 19.9485 186.624 20.0778 186.694 20.2087H186.768L186.873 19.3089H187.616V22.9164C187.616 23.0337 187.618 23.1407 187.622 23.2369C187.625 23.3337 187.637 23.4163 187.658 23.482C187.679 23.5473 187.714 23.599 187.763 23.6369C187.812 23.675 187.882 23.6939 187.972 23.6939C188 23.6939 188.032 23.6905 188.067 23.6835C188.102 23.6767 188.137 23.6665 188.172 23.6526H188.276V24.5125C188.088 24.5866 187.903 24.6247 187.721 24.6247C187.512 24.6247 187.347 24.5953 187.229 24.537C187.11 24.4781 187.019 24.3989 186.956 24.2989C186.893 24.1991 186.852 24.0835 186.83 23.9523C186.81 23.8214 186.792 23.6801 186.778 23.5284H186.705C186.628 23.6733 186.527 23.813 186.401 23.9471C186.275 24.0816 186.125 24.1991 185.95 24.2989C185.776 24.3989 185.582 24.4798 185.369 24.5419C185.156 24.604 184.927 24.6351 184.683 24.6351ZM184.788 23.7456C185.06 23.7456 185.312 23.6939 185.542 23.5907C185.772 23.4869 185.968 23.3473 186.129 23.175C186.289 23.0026 186.415 22.803 186.506 22.5789C186.596 22.3546 186.642 22.1238 186.642 21.8893C186.642 21.648 186.596 21.4135 186.506 21.1894C186.415 20.9637 186.286 20.7654 186.118 20.5934C185.95 20.4209 185.753 20.283 185.526 20.1828C185.299 20.0829 185.05 20.0329 184.777 20.0329C184.519 20.0329 184.279 20.0778 184.059 20.1674C183.839 20.257 183.647 20.3845 183.483 20.5464C183.319 20.7085 183.19 20.9034 183.096 21.1328C183.001 21.3601 182.954 21.6135 182.954 21.8893C182.954 22.1651 183.001 22.4185 183.096 22.6459C183.19 22.8753 183.321 23.0698 183.489 23.2318C183.656 23.3939 183.852 23.5214 184.075 23.6113C184.299 23.7007 184.536 23.7456 184.788 23.7456ZM189.334 17.1784H190.33V24.4695H189.334V17.1784ZM198.763 23.2804H195.012L194.489 24.4695H193.378L196.626 17.3438H197.15L200.398 24.4695H199.287L198.763 23.2804ZM198.417 22.4944L196.919 19.0814H196.857L195.358 22.4944H198.417ZM206.034 19.8157H205.165C205.43 20.0436 205.641 20.3121 205.798 20.6224C205.955 20.9326 206.034 21.2637 206.034 21.6152C206.034 22.0772 205.926 22.4857 205.709 22.8408C205.493 23.1958 205.206 23.4801 204.85 23.6939C205.213 23.811 205.494 23.9782 205.694 24.1956C205.892 24.4127 205.992 24.6972 205.992 25.0485C205.992 25.2968 205.94 25.5313 205.835 25.7522C205.73 25.9724 205.571 26.1639 205.358 26.3261C205.145 26.4878 204.873 26.6155 204.541 26.7086C204.209 26.8016 203.813 26.8484 203.352 26.8484C202.863 26.8484 202.415 26.7982 202.006 26.6984C201.597 26.5982 201.25 26.4727 200.963 26.3208V25.3902H201.058C201.302 25.5486 201.628 25.6847 202.037 25.7984C202.446 25.9122 202.884 25.969 203.352 25.969C203.897 25.969 204.305 25.876 204.578 25.6898C204.85 25.5037 204.986 25.2694 204.986 24.9866C204.986 24.8074 204.948 24.6591 204.871 24.5419C204.794 24.4246 204.684 24.3334 204.541 24.2678C204.398 24.2025 204.227 24.1557 204.028 24.1282C203.829 24.1006 203.607 24.0867 203.363 24.0867C202.958 24.0867 202.589 24.0299 202.257 23.9161C201.925 23.8026 201.643 23.6388 201.409 23.425C201.175 23.2111 200.995 22.9509 200.869 22.6442C200.743 22.3374 200.68 21.9944 200.68 21.6152C200.68 21.2499 200.749 20.9154 200.885 20.6119C201.021 20.3087 201.208 20.0483 201.445 19.8312C201.683 19.614 201.964 19.445 202.288 19.3244C202.613 19.2039 202.964 19.1435 203.342 19.1435H206.034V19.8157ZM203.363 23.2594C203.621 23.2594 203.855 23.213 204.065 23.12C204.274 23.0268 204.454 22.9043 204.604 22.7528C204.754 22.6013 204.871 22.4272 204.955 22.2306C205.039 22.034 205.08 21.8289 205.08 21.6152C205.08 21.3463 205.03 21.1101 204.929 20.9069C204.827 20.7034 204.695 20.5345 204.53 20.4C204.367 20.2657 204.181 20.1638 203.975 20.0951C203.769 20.0259 203.565 19.9915 203.363 19.9915C203.146 19.9915 202.935 20.0259 202.729 20.0951C202.523 20.1638 202.339 20.2657 202.179 20.4C202.018 20.5345 201.887 20.7034 201.786 20.9069C201.685 21.1101 201.634 21.3463 201.634 21.6152C201.634 21.8844 201.678 22.1204 201.765 22.3236C201.852 22.527 201.974 22.6977 202.132 22.8357C202.289 22.9734 202.472 23.0787 202.682 23.1509C202.891 23.2232 203.118 23.2594 203.363 23.2594ZM212.173 21.5014C212.173 21.6118 212.165 21.7359 212.147 21.8739C212.13 22.0116 212.103 22.1357 212.069 22.2463H207.92C207.962 22.5219 208.044 22.7598 208.166 22.9596C208.288 23.1594 208.442 23.3252 208.627 23.456C208.812 23.5869 209.018 23.6818 209.245 23.7403C209.472 23.7992 209.711 23.8282 209.963 23.8282C210.305 23.8282 210.617 23.7958 210.9 23.7299C211.183 23.6646 211.475 23.5524 211.775 23.3939H211.869V24.1385C211.555 24.3178 211.236 24.4453 210.911 24.5212C210.586 24.597 210.225 24.6351 209.827 24.6351C209.393 24.6351 209.001 24.5693 208.648 24.4385C208.295 24.3074 207.995 24.1231 207.747 23.8852C207.499 23.6473 207.307 23.3594 207.171 23.0215C207.034 22.684 206.967 22.3046 206.967 21.8844C206.967 21.4499 207.036 21.0637 207.176 20.7258C207.316 20.3879 207.508 20.1019 207.752 19.8674C207.997 19.6329 208.281 19.4538 208.606 19.3295C208.931 19.2054 209.275 19.1435 209.638 19.1435C210.015 19.1435 210.359 19.1986 210.67 19.3089C210.981 19.4193 211.248 19.5778 211.471 19.7846C211.695 19.9915 211.868 20.2396 211.99 20.5294C212.112 20.819 212.173 21.1432 212.173 21.5014ZM211.293 21.3567C211.272 20.9499 211.124 20.6051 210.848 20.3225C210.572 20.0398 210.172 19.8985 209.648 19.8985C209.446 19.8985 209.249 19.9312 209.056 19.9966C208.865 20.0621 208.69 20.1604 208.533 20.2915C208.376 20.4224 208.243 20.5879 208.134 20.7881C208.026 20.9879 207.955 21.2256 207.92 21.5014H211.293V21.3567ZM213.326 19.2986H214.143L214.248 20.1157H214.321C214.461 19.8674 214.679 19.6433 214.972 19.4435C215.266 19.2435 215.648 19.1435 216.118 19.1435C216.467 19.1435 216.781 19.1971 217.057 19.3037C217.335 19.4106 217.567 19.5625 217.755 19.7589C217.944 19.9553 218.089 20.1898 218.187 20.4619C218.285 20.7345 218.333 21.0394 218.333 21.3773V24.4695H217.296V21.5842C217.296 21.1016 217.167 20.7258 216.909 20.457C216.65 20.1881 216.298 20.0538 215.851 20.0538C215.599 20.0538 215.379 20.1002 215.191 20.1932C215.002 20.2864 214.845 20.4104 214.719 20.5655C214.593 20.7207 214.499 20.9 214.436 21.1033C214.373 21.3067 214.342 21.5188 214.342 21.7395V24.4695H213.326V19.2986ZM222.241 24.6351C221.815 24.6351 221.428 24.5659 221.078 24.4281C220.729 24.2902 220.432 24.1006 220.186 23.8593C219.94 23.618 219.75 23.3286 219.615 22.9907C219.481 22.653 219.412 22.2874 219.412 21.8946C219.412 21.4948 219.481 21.1273 219.615 20.793C219.75 20.4585 219.94 20.1689 220.186 19.9244C220.432 19.6795 220.727 19.4882 221.073 19.3505C221.419 19.2125 221.801 19.1435 222.22 19.1435C222.535 19.1435 222.832 19.1799 223.111 19.252C223.39 19.3244 223.631 19.4261 223.834 19.5572V20.4468H223.739C223.558 20.3294 223.34 20.2345 223.085 20.1621C222.83 20.0898 222.562 20.0538 222.283 20.0538C222.011 20.0538 221.763 20.0985 221.539 20.1881C221.316 20.2777 221.124 20.4034 220.963 20.5655C220.802 20.7275 220.677 20.9224 220.586 21.15C220.495 21.3773 220.45 21.6254 220.45 21.8946C220.45 22.1565 220.494 22.3997 220.581 22.6236C220.668 22.8477 220.792 23.0407 220.953 23.2026C221.113 23.3647 221.309 23.4924 221.539 23.5852C221.77 23.6784 222.028 23.7248 222.315 23.7248C222.587 23.7248 222.847 23.6888 223.095 23.6163C223.343 23.5439 223.558 23.449 223.739 23.332H223.834V24.2316C223.631 24.3559 223.394 24.454 223.121 24.5265C222.849 24.5989 222.556 24.6351 222.241 24.6351ZM225.175 26.8484C225.056 26.8484 224.944 26.8395 224.839 26.8223C224.735 26.805 224.592 26.7689 224.41 26.7138V25.876H224.504C224.686 25.945 224.878 25.9794 225.08 25.9794C225.297 25.9794 225.482 25.9401 225.636 25.8605C225.789 25.7811 225.92 25.676 226.028 25.5451C226.137 25.4143 226.229 25.2643 226.306 25.0951C226.383 24.9264 226.453 24.7489 226.516 24.5625L224.295 19.2986H225.384L227.029 23.4869H227.092L228.684 19.2986H229.763L227.542 24.6142C227.417 24.9176 227.286 25.2038 227.149 25.4728C227.013 25.7415 226.856 25.9779 226.678 26.181C226.5 26.3846 226.291 26.5465 226.049 26.6674C225.808 26.7878 225.517 26.8484 225.175 26.8484ZM155.317 24.5832L154.343 23.6214C153.693 24.2419 152.876 24.5521 151.891 24.5521C151.402 24.5521 150.962 24.4729 150.571 24.3144C150.18 24.1557 149.875 23.9335 149.654 23.6473C149.435 23.3611 149.325 23.0354 149.325 22.6702C149.325 22.2291 149.463 21.8376 149.738 21.4963C150.014 21.155 150.47 20.8053 151.106 20.4468C150.784 20.1295 150.557 19.8434 150.425 19.5882C150.292 19.3333 150.225 19.0678 150.225 18.7918C150.225 18.3026 150.405 17.9095 150.765 17.6129C151.125 17.3163 151.605 17.168 152.206 17.168C152.764 17.168 153.208 17.3025 153.536 17.5717C153.864 17.8404 154.029 18.2092 154.029 18.6782C154.029 19.0437 153.908 19.3712 153.667 19.6606C153.426 19.9502 153.026 20.2534 152.468 20.5707L154.28 22.3495C154.489 21.9565 154.64 21.5188 154.73 21.036L155.537 21.2947C155.411 21.9291 155.198 22.4806 154.898 22.9494L155.883 23.9214L155.317 24.5832ZM152.206 17.8921C151.877 17.8921 151.621 17.9732 151.435 18.1353C151.25 18.2971 151.158 18.5092 151.158 18.7711C151.158 18.9573 151.209 19.1367 151.31 19.3089C151.411 19.4812 151.608 19.7159 151.902 20.0123C152.383 19.7435 152.717 19.5123 152.902 19.3193C153.087 19.1263 153.18 18.9158 153.18 18.6886C153.18 18.4471 153.094 18.2541 152.923 18.1092C152.752 17.9647 152.513 17.8921 152.206 17.8921ZM151.954 23.7248C152.68 23.7248 153.278 23.4973 153.745 23.0422L151.661 20.9947C151.158 21.2705 150.807 21.5273 150.608 21.7652C150.409 22.0029 150.309 22.2704 150.309 22.5666C150.309 22.9115 150.461 23.1905 150.765 23.4043C151.069 23.618 151.465 23.7248 151.954 23.7248Z" fill="#3F524F"/>
<defs>
<linearGradient id="paint0_linear" x1="13.2146" y1="44.6485" x2="51.4629" y2="5.90345" gradientUnits="userSpaceOnUse">
<stop stop-color="#CDCECF"/>
<stop offset="1" stop-color="#A7A7A8"/>
</linearGradient>
<linearGradient id="paint1_linear" x1="7.4827" y1="47.0162" x2="48.0211" y2="5.95138" gradientUnits="userSpaceOnUse">
<stop stop-color="#797978"/>
<stop offset="1" stop-color="#16A892"/>
</linearGradient>
</defs>
</svg>
